<?xml version="1.0" encoding="UTF-8"?><svg xmlns="http://www.w3.org/2000/svg" xmlns:xlink="http://www.w3.org/1999/xlink" width="2250pt" zoomAndPan="magnify" viewBox="0 0 2250 749.999995" height="749.999995pt" preserveAspectRatio="xMidYMid meet" version="1.2"><defs><g/><clipPath xml:id="clip1" id="clip1"><path d="M 492 68 L 635 68 L 635 215 L 492 215 Z M 492 68 "/></clipPath><clipPath xml:id="clip2" id="clip2"><path d="M 572.015625 18.339844 L 691.34375 119.988281 L 605.257812 221.042969 L 485.933594 119.394531 Z M 572.015625 18.339844 "/></clipPath><clipPath xml:id="clip3" id="clip3"><path d="M 572.015625 18.339844 L 691.34375 119.988281 L 605.257812 221.042969 L 485.933594 119.394531 Z M 572.015625 18.339844 "/></clipPath></defs><g xml:id="surface1" id="surface1"><path style="fill:none;stroke-width:1;stroke-linecap:round;stroke-linejoin:miter;stroke:rgb(100%,34.118652%,19.999695%);stroke-opacity:1;stroke-miterlimit:4;" d="M 0.499962 -0.0000159744 L 4.964734 -0.00000295761 " transform="matrix(26.002068,-32.980479,32.982164,26.003396,78.797363,405.364392)"/><path style=" stroke:none;fill-rule:nonzero;fill:rgb(100%,34.118652%,19.999695%);fill-opacity:1;" d="M 74.988281 322.238281 C 73.789062 322.238281 72.59375 322.265625 71.398438 322.324219 C 70.203125 322.382812 69.011719 322.472656 67.820312 322.589844 C 66.628906 322.707031 65.441406 322.851562 64.257812 323.027344 C 63.074219 323.203125 61.894531 323.410156 60.722656 323.640625 C 59.546875 323.875 58.378906 324.136719 57.21875 324.429688 C 56.058594 324.71875 54.90625 325.039062 53.761719 325.386719 C 52.617188 325.734375 51.480469 326.109375 50.351562 326.511719 C 49.226562 326.914062 48.109375 327.34375 47.003906 327.804688 C 45.898438 328.261719 44.804688 328.746094 43.722656 329.257812 C 42.640625 329.769531 41.570312 330.308594 40.515625 330.871094 C 39.460938 331.433594 38.421875 332.023438 37.394531 332.640625 C 36.367188 333.253906 35.355469 333.894531 34.363281 334.5625 C 33.367188 335.226562 32.386719 335.914062 31.425781 336.628906 C 30.464844 337.339844 29.523438 338.078125 28.597656 338.835938 C 27.671875 339.59375 26.765625 340.375 25.878906 341.179688 C 24.992188 341.984375 24.125 342.808594 23.28125 343.65625 C 22.433594 344.5 21.609375 345.367188 20.804688 346.253906 C 20 347.140625 19.21875 348.046875 18.460938 348.972656 C 17.703125 349.898438 16.964844 350.839844 16.253906 351.800781 C 15.539062 352.761719 14.851562 353.742188 14.1875 354.734375 C 13.523438 355.730469 12.882812 356.742188 12.265625 357.769531 C 11.652344 358.792969 11.0625 359.835938 10.496094 360.890625 C 9.933594 361.945312 9.394531 363.015625 8.882812 364.097656 C 8.371094 365.179688 7.886719 366.273438 7.429688 367.378906 C 6.972656 368.484375 6.539062 369.601562 6.136719 370.726562 C 5.734375 371.855469 5.359375 372.988281 5.011719 374.132812 C 4.664062 375.28125 4.34375 376.433594 4.054688 377.59375 C 3.761719 378.753906 3.5 379.921875 3.269531 381.097656 C 3.035156 382.269531 2.828125 383.449219 2.652344 384.632812 C 2.480469 385.816406 2.332031 387.003906 2.214844 388.195312 C 2.097656 389.386719 2.007812 390.578125 1.949219 391.773438 C 1.890625 392.96875 1.863281 394.164062 1.863281 395.363281 C 1.863281 396.558594 1.890625 397.753906 1.949219 398.949219 C 2.007812 400.144531 2.097656 401.339844 2.214844 402.53125 C 2.332031 403.71875 2.480469 404.90625 2.652344 406.089844 C 2.828125 407.273438 3.035156 408.453125 3.269531 409.628906 C 3.5 410.800781 3.761719 411.96875 4.054688 413.128906 C 4.34375 414.289062 4.664062 415.445312 5.011719 416.589844 C 5.359375 417.734375 5.734375 418.871094 6.136719 419.996094 C 6.539062 421.125 6.972656 422.238281 7.429688 423.34375 C 7.886719 424.453125 8.371094 425.546875 8.882812 426.625 C 9.394531 427.707031 9.933594 428.777344 10.496094 429.832031 C 11.0625 430.886719 11.652344 431.929688 12.265625 432.957031 C 12.882812 433.980469 13.523438 434.992188 14.1875 435.988281 C 14.851562 436.984375 15.539062 437.960938 16.253906 438.921875 C 16.964844 439.882812 17.703125 440.828125 18.460938 441.75 C 19.21875 442.675781 20 443.582031 20.804688 444.46875 C 21.609375 445.355469 22.433594 446.222656 23.28125 447.070312 C 24.125 447.914062 24.992188 448.738281 25.878906 449.542969 C 26.765625 450.347656 27.671875 451.128906 28.597656 451.886719 C 29.523438 452.648438 30.464844 453.382812 31.425781 454.097656 C 32.386719 454.808594 33.367188 455.5 34.363281 456.164062 C 35.355469 456.828125 36.367188 457.46875 37.394531 458.082031 C 38.421875 458.699219 39.460938 459.289062 40.515625 459.851562 C 41.570312 460.417969 42.640625 460.953125 43.722656 461.464844 C 44.804688 461.976562 45.898438 462.460938 47.003906 462.921875 C 48.109375 463.378906 49.226562 463.808594 50.351562 464.210938 C 51.480469 464.617188 52.617188 464.992188 53.761719 465.339844 C 54.90625 465.683594 56.058594 466.003906 57.21875 466.296875 C 58.378906 466.585938 59.546875 466.847656 60.722656 467.082031 C 61.894531 467.316406 63.074219 467.519531 64.257812 467.695312 C 65.441406 467.871094 66.628906 468.015625 67.820312 468.132812 C 69.011719 468.253906 70.203125 468.339844 71.398438 468.398438 C 72.59375 468.457031 73.789062 468.488281 74.988281 468.488281 C 76.183594 468.488281 77.378906 468.457031 78.574219 468.398438 C 79.769531 468.339844 80.964844 468.253906 82.15625 468.132812 C 83.347656 468.015625 84.535156 467.871094 85.71875 467.695312 C 86.902344 467.519531 88.078125 467.316406 89.253906 467.082031 C 90.425781 466.847656 91.59375 466.585938 92.753906 466.296875 C 93.917969 466.003906 95.070312 465.683594 96.214844 465.339844 C 97.359375 464.992188 98.496094 464.617188 99.621094 464.210938 C 100.75 463.808594 101.867188 463.378906 102.972656 462.921875 C 104.078125 462.460938 105.171875 461.976562 106.253906 461.464844 C 107.335938 460.953125 108.402344 460.417969 109.457031 459.851562 C 110.515625 459.289062 111.554688 458.699219 112.582031 458.082031 C 113.609375 457.46875 114.617188 456.828125 115.613281 456.164062 C 116.609375 455.5 117.585938 454.808594 118.546875 454.097656 C 119.507812 453.382812 120.453125 452.648438 121.378906 451.886719 C 122.304688 451.128906 123.207031 450.347656 124.09375 449.542969 C 124.980469 448.738281 125.847656 447.914062 126.695312 447.070312 C 127.542969 446.222656 128.367188 445.355469 129.167969 444.46875 C 129.972656 443.582031 130.753906 442.675781 131.515625 441.75 C 132.273438 440.828125 133.007812 439.882812 133.722656 438.921875 C 134.433594 437.960938 135.125 436.984375 135.789062 435.988281 C 136.453125 434.992188 137.09375 433.980469 137.710938 432.957031 C 138.324219 431.929688 138.914062 430.886719 139.476562 429.832031 C 140.042969 428.777344 140.582031 427.707031 141.09375 426.625 C 141.601562 425.546875 142.089844 424.453125 142.546875 423.34375 C 143.003906 422.238281 143.433594 421.125 143.839844 419.996094 C 144.242188 418.871094 144.617188 417.734375 144.964844 416.589844 C 145.3125 415.445312 145.628906 414.289062 145.921875 413.128906 C 146.210938 411.96875 146.472656 410.800781 146.707031 409.628906 C 146.941406 408.453125 147.144531 407.273438 147.320312 406.089844 C 147.496094 404.90625 147.644531 403.71875 147.761719 402.53125 C 147.878906 401.339844 147.964844 400.144531 148.023438 398.949219 C 148.082031 397.753906 148.113281 396.558594 148.113281 395.363281 C 148.113281 394.164062 148.082031 392.96875 148.023438 391.773438 C 147.964844 390.578125 147.878906 389.386719 147.761719 388.195312 C 147.644531 387.003906 147.496094 385.816406 147.320312 384.632812 C 147.144531 383.449219 146.941406 382.269531 146.707031 381.097656 C 146.472656 379.921875 146.210938 378.753906 145.921875 377.59375 C 145.628906 376.433594 145.3125 375.28125 144.964844 374.132812 C 144.617188 372.988281 144.242188 371.855469 143.839844 370.726562 C 143.433594 369.601562 143.003906 368.484375 142.546875 367.378906 C 142.089844 366.273438 141.601562 365.179688 141.09375 364.097656 C 140.582031 363.015625 140.042969 361.945312 139.476562 360.890625 C 138.914062 359.835938 138.324219 358.792969 137.710938 357.769531 C 137.09375 356.742188 136.453125 355.730469 135.789062 354.734375 C 135.125 353.742188 134.433594 352.761719 133.722656 351.800781 C 133.007812 350.839844 132.273438 349.898438 131.515625 348.972656 C 130.753906 348.046875 129.972656 347.140625 129.167969 346.253906 C 128.367188 345.367188 127.542969 344.5 126.695312 343.65625 C 125.847656 342.808594 124.980469 341.984375 124.09375 341.179688 C 123.207031 340.375 122.304688 339.59375 121.378906 338.835938 C 120.453125 338.078125 119.507812 337.339844 118.546875 336.628906 C 117.585938 335.914062 116.609375 335.226562 115.613281 334.5625 C 114.617188 333.894531 113.609375 333.253906 112.582031 332.640625 C 111.554688 332.023438 110.515625 331.433594 109.457031 330.871094 C 108.402344 330.308594 107.335938 329.769531 106.253906 329.257812 C 105.171875 328.746094 104.078125 328.261719 102.972656 327.804688 C 101.867188 327.34375 100.75 326.914062 99.621094 326.511719 C 98.496094 326.109375 97.359375 325.734375 96.214844 325.386719 C 95.070312 325.039062 93.917969 324.71875 92.753906 324.429688 C 91.59375 324.136719 90.425781 323.875 89.253906 323.640625 C 88.078125 323.410156 86.902344 323.203125 85.71875 323.027344 C 84.535156 322.851562 83.347656 322.707031 82.15625 322.589844 C 80.964844 322.472656 79.769531 322.382812 78.574219 322.324219 C 77.378906 322.265625 76.183594 322.238281 74.988281 322.238281 Z M 74.988281 322.238281 "/><path style="fill:none;stroke-width:1;stroke-linecap:round;stroke-linejoin:miter;stroke:rgb(100%,34.118652%,19.999695%);stroke-opacity:1;stroke-miterlimit:4;" d="M 0.500004 0.0000353372 L 3.714353 -0.0000227772 " transform="matrix(-37.6616,-18.590421,18.590421,-37.6616,384.38498,327.257553)"/><path style=" stroke:none;fill-rule:nonzero;fill:rgb(100%,34.118652%,19.999695%);fill-opacity:1;" d="M 221.261719 175.960938 C 220.066406 175.960938 218.871094 175.992188 217.675781 176.050781 C 216.480469 176.109375 215.285156 176.195312 214.09375 176.3125 C 212.902344 176.429688 211.714844 176.578125 210.53125 176.753906 C 209.347656 176.929688 208.171875 177.132812 206.996094 177.367188 C 205.824219 177.601562 204.65625 177.863281 203.496094 178.152344 C 202.332031 178.445312 201.179688 178.761719 200.035156 179.109375 C 198.890625 179.457031 197.753906 179.832031 196.628906 180.238281 C 195.5 180.640625 194.382812 181.070312 193.277344 181.527344 C 192.171875 181.988281 191.078125 182.472656 189.996094 182.984375 C 188.914062 183.496094 187.847656 184.03125 186.792969 184.597656 C 185.734375 185.160156 184.695312 185.75 183.667969 186.367188 C 182.640625 186.980469 181.632812 187.621094 180.636719 188.285156 C 179.640625 188.949219 178.664062 189.640625 177.703125 190.351562 C 176.742188 191.066406 175.796875 191.800781 174.871094 192.5625 C 173.945312 193.320312 173.042969 194.101562 172.15625 194.90625 C 171.269531 195.707031 170.402344 196.535156 169.554688 197.378906 C 168.707031 198.226562 167.882812 199.09375 167.082031 199.980469 C 166.277344 200.867188 165.496094 201.773438 164.734375 202.695312 C 163.976562 203.621094 163.242188 204.566406 162.527344 205.527344 C 161.816406 206.488281 161.125 207.464844 160.460938 208.460938 C 159.796875 209.457031 159.15625 210.46875 158.539062 211.492188 C 157.925781 212.519531 157.335938 213.5625 156.773438 214.617188 C 156.207031 215.671875 155.667969 216.742188 155.15625 217.820312 C 154.644531 218.902344 154.160156 219.996094 153.703125 221.101562 C 153.246094 222.210938 152.816406 223.324219 152.410156 224.453125 C 152.007812 225.578125 151.632812 226.714844 151.285156 227.859375 C 150.9375 229.003906 150.621094 230.160156 150.328125 231.320312 C 150.039062 232.480469 149.777344 233.648438 149.542969 234.820312 C 149.308594 235.996094 149.105469 237.171875 148.929688 238.359375 C 148.753906 239.542969 148.605469 240.730469 148.488281 241.917969 C 148.371094 243.109375 148.285156 244.304688 148.226562 245.5 C 148.167969 246.695312 148.136719 247.890625 148.136719 249.085938 C 148.136719 250.285156 148.167969 251.480469 148.226562 252.675781 C 148.285156 253.871094 148.371094 255.0625 148.488281 256.253906 C 148.605469 257.445312 148.753906 258.632812 148.929688 259.816406 C 149.105469 261 149.308594 262.179688 149.542969 263.351562 C 149.777344 264.527344 150.039062 265.695312 150.328125 266.855469 C 150.621094 268.015625 150.9375 269.167969 151.285156 270.3125 C 151.632812 271.460938 152.007812 272.59375 152.410156 273.722656 C 152.816406 274.847656 153.246094 275.964844 153.703125 277.070312 C 154.160156 278.175781 154.644531 279.269531 155.15625 280.351562 C 155.667969 281.433594 156.207031 282.503906 156.773438 283.558594 C 157.335938 284.613281 157.925781 285.65625 158.539062 286.679688 C 159.15625 287.707031 159.796875 288.71875 160.460938 289.714844 C 161.125 290.707031 161.816406 291.6875 162.527344 292.648438 C 163.242188 293.609375 163.976562 294.550781 164.734375 295.476562 C 165.496094 296.402344 166.277344 297.308594 167.082031 298.195312 C 167.882812 299.082031 168.707031 299.949219 169.554688 300.792969 C 170.402344 301.640625 171.269531 302.464844 172.15625 303.269531 C 173.042969 304.074219 173.945312 304.855469 174.871094 305.613281 C 175.796875 306.371094 176.742188 307.109375 177.703125 307.820312 C 178.664062 308.535156 179.640625 309.222656 180.636719 309.886719 C 181.632812 310.554688 182.640625 311.191406 183.667969 311.808594 C 184.695312 312.421875 185.734375 313.011719 186.792969 313.578125 C 187.847656 314.140625 188.914062 314.679688 189.996094 315.191406 C 191.078125 315.703125 192.171875 316.1875 193.277344 316.644531 C 194.382812 317.105469 195.5 317.535156 196.628906 317.9375 C 197.753906 318.339844 198.890625 318.714844 200.035156 319.0625 C 201.179688 319.410156 202.332031 319.730469 203.496094 320.019531 C 204.65625 320.3125 205.824219 320.574219 206.996094 320.808594 C 208.171875 321.039062 209.347656 321.246094 210.53125 321.421875 C 211.714844 321.597656 212.902344 321.742188 214.09375 321.859375 C 215.285156 321.976562 216.480469 322.066406 217.675781 322.125 C 218.871094 322.183594 220.066406 322.210938 221.261719 322.210938 C 222.460938 322.210938 223.65625 322.183594 224.851562 322.125 C 226.046875 322.066406 227.238281 321.976562 228.429688 321.859375 C 229.621094 321.742188 230.808594 321.597656 231.992188 321.421875 C 233.175781 321.246094 234.355469 321.039062 235.527344 320.808594 C 236.703125 320.574219 237.871094 320.3125 239.03125 320.019531 C 240.191406 319.730469 241.34375 319.410156 242.488281 319.0625 C 243.632812 318.714844 244.769531 318.339844 245.898438 317.9375 C 247.023438 317.535156 248.140625 317.105469 249.246094 316.644531 C 250.351562 316.1875 251.445312 315.703125 252.527344 315.191406 C 253.609375 314.679688 254.679688 314.140625 255.734375 313.578125 C 256.789062 313.011719 257.828125 312.421875 258.855469 311.808594 C 259.882812 311.191406 260.894531 310.554688 261.886719 309.886719 C 262.882812 309.222656 263.863281 308.535156 264.824219 307.820312 C 265.785156 307.109375 266.726562 306.371094 267.652344 305.613281 C 268.578125 304.855469 269.484375 304.074219 270.371094 303.269531 C 271.257812 302.464844 272.125 301.640625 272.96875 300.792969 C 273.816406 299.949219 274.640625 299.082031 275.445312 298.195312 C 276.25 297.308594 277.03125 296.402344 277.789062 295.476562 C 278.546875 294.550781 279.285156 293.609375 279.996094 292.648438 C 280.710938 291.6875 281.398438 290.707031 282.0625 289.714844 C 282.726562 288.71875 283.367188 287.707031 283.984375 286.679688 C 284.597656 285.65625 285.1875 284.613281 285.753906 283.558594 C 286.316406 282.503906 286.855469 281.433594 287.367188 280.351562 C 287.878906 279.269531 288.363281 278.175781 288.820312 277.070312 C 289.277344 275.964844 289.710938 274.847656 290.113281 273.722656 C 290.515625 272.59375 290.890625 271.460938 291.238281 270.3125 C 291.585938 269.167969 291.90625 268.015625 292.195312 266.855469 C 292.488281 265.695312 292.75 264.527344 292.980469 263.351562 C 293.214844 262.179688 293.421875 261 293.597656 259.816406 C 293.769531 258.632812 293.917969 257.445312 294.035156 256.253906 C 294.152344 255.0625 294.242188 253.871094 294.300781 252.675781 C 294.359375 251.480469 294.386719 250.285156 294.386719 249.085938 C 294.386719 247.890625 294.359375 246.695312 294.300781 245.5 C 294.242188 244.304688 294.152344 243.109375 294.035156 241.917969 C 293.917969 240.730469 293.769531 239.542969 293.597656 238.359375 C 293.421875 237.171875 293.214844 235.996094 292.980469 234.820312 C 292.75 233.648438 292.488281 232.480469 292.195312 231.320312 C 291.90625 230.160156 291.585938 229.003906 291.238281 227.859375 C 290.890625 226.714844 290.515625 225.578125 290.113281 224.453125 C 289.710938 223.324219 289.277344 222.210938 288.820312 221.101562 C 288.363281 219.996094 287.878906 218.902344 287.367188 217.820312 C 286.855469 216.742188 286.316406 215.671875 285.753906 214.617188 C 285.1875 213.5625 284.597656 212.519531 283.984375 211.492188 C 283.367188 210.46875 282.726562 209.457031 282.0625 208.460938 C 281.398438 207.464844 280.710938 206.488281 279.996094 205.527344 C 279.285156 204.566406 278.546875 203.621094 277.789062 202.695312 C 277.03125 201.773438 276.25 200.867188 275.445312 199.980469 C 274.640625 199.09375 273.816406 198.226562 272.96875 197.378906 C 272.125 196.535156 271.257812 195.707031 270.371094 194.90625 C 269.484375 194.101562 268.578125 193.320312 267.652344 192.5625 C 266.726562 191.800781 265.785156 191.066406 264.824219 190.351562 C 263.863281 189.640625 262.882812 188.949219 261.886719 188.285156 C 260.894531 187.621094 259.882812 186.980469 258.855469 186.367188 C 257.828125 185.75 256.789062 185.160156 255.734375 184.597656 C 254.679688 184.03125 253.609375 183.496094 252.527344 182.984375 C 251.445312 182.472656 250.351562 181.988281 249.246094 181.527344 C 248.140625 181.070312 247.023438 180.640625 245.898438 180.238281 C 244.769531 179.832031 243.632812 179.457031 242.488281 179.109375 C 241.34375 178.761719 240.191406 178.445312 239.03125 178.152344 C 237.871094 177.863281 236.703125 177.601562 235.527344 177.367188 C 234.355469 177.132812 233.175781 176.929688 231.992188 176.753906 C 230.808594 176.578125 229.621094 176.429688 228.429688 176.3125 C 227.238281 176.195312 226.046875 176.109375 224.851562 176.050781 C 223.65625 175.992188 222.460938 175.960938 221.261719 175.960938 Z M 221.261719 175.960938 "/><path style="fill:none;stroke-width:1;stroke-linecap:round;stroke-linejoin:miter;stroke:rgb(100%,34.118652%,19.999695%);stroke-opacity:1;stroke-miterlimit:4;" d="M 0.499974 -0.0000228928 L 5.415262 0.0000502452 " transform="matrix(28.552041,-30.759051,30.782284,28.573603,391.080896,332.906723)"/><path style=" stroke:none;fill-rule:nonzero;fill:rgb(100%,34.118652%,19.999695%);fill-opacity:1;" d="M 389.109375 259.042969 C 387.914062 259.042969 386.714844 259.074219 385.519531 259.132812 C 384.324219 259.191406 383.132812 259.277344 381.941406 259.394531 C 380.75 259.511719 379.5625 259.660156 378.378906 259.835938 C 377.195312 260.011719 376.015625 260.214844 374.84375 260.449219 C 373.667969 260.683594 372.5 260.945312 371.339844 261.234375 C 370.179688 261.527344 369.027344 261.84375 367.882812 262.191406 C 366.738281 262.539062 365.601562 262.914062 364.472656 263.316406 C 363.347656 263.722656 362.230469 264.152344 361.125 264.609375 C 360.019531 265.066406 358.925781 265.550781 357.84375 266.0625 C 356.761719 266.574219 355.695312 267.113281 354.636719 267.679688 C 353.582031 268.242188 352.542969 268.832031 351.515625 269.445312 C 350.488281 270.0625 349.476562 270.703125 348.484375 271.367188 C 347.488281 272.03125 346.507812 272.722656 345.546875 273.433594 C 344.585938 274.148438 343.644531 274.882812 342.71875 275.640625 C 341.792969 276.402344 340.886719 277.183594 340 277.988281 C 339.113281 278.789062 338.246094 279.613281 337.402344 280.460938 C 336.554688 281.308594 335.730469 282.175781 334.925781 283.0625 C 334.125 283.949219 333.339844 284.851562 332.582031 285.777344 C 331.824219 286.703125 331.085938 287.648438 330.375 288.609375 C 329.660156 289.570312 328.972656 290.546875 328.308594 291.542969 C 327.644531 292.539062 327.003906 293.546875 326.386719 294.574219 C 325.773438 295.601562 325.183594 296.640625 324.617188 297.699219 C 324.054688 298.753906 323.515625 299.820312 323.003906 300.902344 C 322.492188 301.984375 322.007812 303.078125 321.550781 304.183594 C 321.09375 305.289062 320.660156 306.40625 320.257812 307.535156 C 319.855469 308.660156 319.480469 309.796875 319.132812 310.941406 C 318.785156 312.085938 318.464844 313.238281 318.175781 314.402344 C 317.882812 315.5625 317.621094 316.730469 317.390625 317.902344 C 317.15625 319.078125 316.949219 320.253906 316.777344 321.4375 C 316.601562 322.621094 316.453125 323.808594 316.335938 325 C 316.21875 326.191406 316.128906 327.386719 316.070312 328.582031 C 316.011719 329.777344 315.984375 330.972656 315.984375 332.167969 C 315.984375 333.367188 316.011719 334.5625 316.070312 335.757812 C 316.128906 336.953125 316.21875 338.144531 316.335938 339.335938 C 316.453125 340.527344 316.601562 341.714844 316.777344 342.898438 C 316.949219 344.082031 317.15625 345.261719 317.390625 346.433594 C 317.621094 347.609375 317.882812 348.777344 318.175781 349.9375 C 318.464844 351.097656 318.785156 352.25 319.132812 353.394531 C 319.480469 354.539062 319.855469 355.675781 320.257812 356.804688 C 320.660156 357.929688 321.09375 359.046875 321.550781 360.152344 C 322.007812 361.257812 322.492188 362.351562 323.003906 363.433594 C 323.515625 364.515625 324.054688 365.582031 324.617188 366.640625 C 325.183594 367.695312 325.773438 368.734375 326.386719 369.761719 C 327.003906 370.789062 327.644531 371.800781 328.308594 372.792969 C 328.972656 373.789062 329.660156 374.769531 330.375 375.730469 C 331.085938 376.691406 331.824219 377.632812 332.582031 378.558594 C 333.339844 379.484375 334.125 380.390625 334.925781 381.277344 C 335.730469 382.164062 336.554688 383.03125 337.402344 383.875 C 338.246094 384.722656 339.113281 385.546875 340 386.351562 C 340.886719 387.152344 341.792969 387.9375 342.71875 388.695312 C 343.644531 389.453125 344.585938 390.191406 345.546875 390.902344 C 346.507812 391.617188 347.488281 392.304688 348.484375 392.96875 C 349.476562 393.632812 350.488281 394.273438 351.515625 394.890625 C 352.542969 395.503906 353.582031 396.09375 354.636719 396.660156 C 355.695312 397.222656 356.761719 397.761719 357.84375 398.273438 C 358.925781 398.785156 360.019531 399.269531 361.125 399.726562 C 362.230469 400.183594 363.347656 400.617188 364.472656 401.019531 C 365.601562 401.421875 366.738281 401.796875 367.882812 402.144531 C 369.027344 402.492188 370.179688 402.8125 371.339844 403.101562 C 372.5 403.394531 373.667969 403.65625 374.84375 403.886719 C 376.015625 404.121094 377.195312 404.328125 378.378906 404.503906 C 379.5625 404.675781 380.75 404.824219 381.941406 404.941406 C 383.132812 405.058594 384.324219 405.148438 385.519531 405.207031 C 386.714844 405.265625 387.914062 405.292969 389.109375 405.292969 C 390.304688 405.292969 391.5 405.265625 392.695312 405.207031 C 393.890625 405.148438 395.085938 405.058594 396.277344 404.941406 C 397.46875 404.824219 398.65625 404.675781 399.839844 404.503906 C 401.023438 404.328125 402.203125 404.121094 403.375 403.886719 C 404.546875 403.65625 405.714844 403.394531 406.875 403.101562 C 408.039062 402.8125 409.191406 402.492188 410.335938 402.144531 C 411.480469 401.796875 412.617188 401.421875 413.742188 401.019531 C 414.871094 400.617188 415.988281 400.183594 417.09375 399.726562 C 418.199219 399.269531 419.292969 398.785156 420.375 398.273438 C 421.457031 397.761719 422.523438 397.222656 423.578125 396.660156 C 424.636719 396.09375 425.675781 395.503906 426.703125 394.890625 C 427.730469 394.273438 428.738281 393.632812 429.734375 392.96875 C 430.730469 392.304688 431.707031 391.617188 432.667969 390.902344 C 433.628906 390.191406 434.574219 389.453125 435.5 388.695312 C 436.425781 387.9375 437.328125 387.152344 438.214844 386.351562 C 439.101562 385.546875 439.96875 384.722656 440.816406 383.875 C 441.664062 383.03125 442.488281 382.164062 443.289062 381.277344 C 444.09375 380.390625 444.875 379.484375 445.636719 378.558594 C 446.394531 377.632812 447.128906 376.691406 447.84375 375.730469 C 448.554688 374.769531 449.246094 373.789062 449.910156 372.792969 C 450.574219 371.800781 451.214844 370.789062 451.832031 369.761719 C 452.445312 368.734375 453.035156 367.695312 453.597656 366.640625 C 454.164062 365.582031 454.703125 364.515625 455.214844 363.433594 C 455.726562 362.351562 456.210938 361.257812 456.667969 360.152344 C 457.125 359.046875 457.554688 357.929688 457.960938 356.804688 C 458.363281 355.675781 458.738281 354.539062 459.085938 353.394531 C 459.433594 352.25 459.75 351.097656 460.042969 349.9375 C 460.332031 348.777344 460.59375 347.609375 460.828125 346.433594 C 461.0625 345.261719 461.265625 344.082031 461.441406 342.898438 C 461.617188 341.714844 461.765625 340.527344 461.882812 339.335938 C 462 338.144531 462.085938 336.953125 462.144531 335.757812 C 462.203125 334.5625 462.234375 333.367188 462.234375 332.167969 C 462.234375 330.972656 462.203125 329.777344 462.144531 328.582031 C 462.085938 327.386719 462 326.191406 461.882812 325 C 461.765625 323.808594 461.617188 322.621094 461.441406 321.4375 C 461.265625 320.253906 461.0625 319.078125 460.828125 317.902344 C 460.59375 316.730469 460.332031 315.5625 460.042969 314.402344 C 459.75 313.238281 459.433594 312.085938 459.085938 310.941406 C 458.738281 309.796875 458.363281 308.660156 457.960938 307.535156 C 457.554688 306.40625 457.125 305.289062 456.667969 304.183594 C 456.210938 303.078125 455.726562 301.984375 455.214844 300.902344 C 454.703125 299.820312 454.164062 298.753906 453.597656 297.699219 C 453.035156 296.640625 452.445312 295.601562 451.832031 294.574219 C 451.214844 293.546875 450.574219 292.539062 449.910156 291.542969 C 449.246094 290.546875 448.554688 289.570312 447.84375 288.609375 C 447.128906 287.648438 446.394531 286.703125 445.636719 285.777344 C 444.875 284.851562 444.09375 283.949219 443.289062 283.0625 C 442.488281 282.175781 441.664062 281.308594 440.816406 280.460938 C 439.96875 279.613281 439.101562 278.789062 438.214844 277.988281 C 437.328125 277.183594 436.425781 276.402344 435.5 275.640625 C 434.574219 274.882812 433.628906 274.148438 432.667969 273.433594 C 431.707031 272.722656 430.730469 272.03125 429.734375 271.367188 C 428.738281 270.703125 427.730469 270.0625 426.703125 269.445312 C 425.675781 268.832031 424.636719 268.242188 423.578125 267.679688 C 422.523438 267.113281 421.457031 266.574219 420.375 266.0625 C 419.292969 265.550781 418.199219 265.066406 417.09375 264.609375 C 415.988281 264.152344 414.871094 263.722656 413.742188 263.316406 C 412.617188 262.914062 411.480469 262.539062 410.335938 262.191406 C 409.191406 261.84375 408.039062 261.527344 406.875 261.234375 C 405.714844 260.945312 404.546875 260.683594 403.375 260.449219 C 402.203125 260.214844 401.023438 260.011719 399.839844 259.835938 C 398.65625 259.660156 397.46875 259.511719 396.277344 259.394531 C 395.085938 259.277344 393.890625 259.191406 392.695312 259.132812 C 391.5 259.074219 390.304688 259.042969 389.109375 259.042969 Z M 389.109375 259.042969 "/><g style="fill:rgb(100%,34.118652%,19.999695%);fill-opacity:1;"><g transform="translate(688.864945, 258.244709)"><path style="stroke:none;" d="M 38.933594 -66.894531 L 38.933594 -86.585938 L 74.410156 -86.585938 L 70.5 -110.1875 L 7.515625 -110.1875 L 7.515625 0 L 38.933594 0 L 38.933594 -51.109375 L 70.5 -51.109375 L 70.5 -66.894531 Z M 38.933594 -66.894531 "/></g></g><g style="fill:rgb(100%,34.118652%,19.999695%);fill-opacity:1;"><g transform="translate(767.781029, 258.244709)"><path style="stroke:none;" d="M 56.972656 -31.417969 L 65.992188 0 L 97.410156 0 L 65.992188 -110.1875 L 34.425781 -110.1875 L 3.007812 0 L 26.605469 0 L 35.625 -31.417969 Z M 52.460938 -47.203125 L 40.136719 -47.203125 L 46.300781 -68.847656 Z M 52.460938 -47.203125 "/></g></g><g style="fill:rgb(100%,34.118652%,19.999695%);fill-opacity:1;"><g transform="translate(868.192355, 258.244709)"><path style="stroke:none;" d="M 94.101562 0 L 75.160156 -52.914062 C 79.671875 -55.320312 83.429688 -58.476562 86.136719 -62.683594 C 88.839844 -66.894531 90.195312 -72.15625 90.195312 -78.769531 C 90.195312 -84.632812 88.992188 -89.59375 86.734375 -93.652344 C 84.332031 -97.558594 81.324219 -100.867188 77.417969 -103.273438 C 73.507812 -105.675781 68.847656 -107.480469 63.585938 -108.53125 C 58.324219 -109.585938 52.761719 -110.1875 46.902344 -110.1875 L 7.515625 -110.1875 L 7.515625 0 L 38.933594 0 L 38.933594 -47.203125 L 46.902344 -47.203125 L 62.535156 0 Z M 38.933594 -62.984375 L 38.933594 -94.402344 C 42.242188 -94.402344 45.097656 -93.953125 47.652344 -93.050781 C 50.207031 -92.148438 52.3125 -90.945312 53.964844 -89.441406 C 55.621094 -87.9375 56.820312 -86.285156 57.722656 -84.480469 C 58.625 -82.527344 59.078125 -80.574219 59.078125 -78.617188 C 59.078125 -76.515625 58.625 -74.558594 57.722656 -72.757812 C 56.820312 -70.953125 55.621094 -69.296875 53.964844 -67.796875 C 52.3125 -66.292969 50.207031 -65.238281 47.652344 -64.339844 C 45.097656 -63.4375 42.242188 -62.984375 38.933594 -62.984375 Z M 38.933594 -62.984375 "/></g></g><g style="fill:rgb(100%,34.118652%,19.999695%);fill-opacity:1;"><g transform="translate(966.799898, 258.244709)"><path style="stroke:none;" d="M 98.914062 -110.1875 L 67.496094 -110.1875 L 67.496094 -55.019531 C 67.496094 -41.1875 66.292969 -31.265625 64.039062 -25.105469 C 61.632812 -18.789062 57.574219 -15.785156 51.710938 -15.785156 C 48.703125 -15.785156 46.300781 -16.535156 44.34375 -18.039062 C 42.242188 -19.542969 40.585938 -21.796875 39.382812 -25.105469 C 38.183594 -28.261719 37.28125 -32.320312 36.679688 -37.28125 C 36.078125 -42.089844 35.925781 -48.101562 35.925781 -55.019531 L 35.925781 -110.1875 L 4.507812 -110.1875 L 4.507812 -55.019531 C 4.507812 -48.101562 5.261719 -41.339844 6.914062 -34.722656 C 8.417969 -28.109375 11.125 -22.246094 14.882812 -17.136719 C 18.488281 -12.027344 23.449219 -7.816406 29.464844 -4.660156 C 35.476562 -1.503906 42.84375 0 51.710938 0 C 60.429688 0 67.945312 -1.503906 73.957031 -4.660156 C 79.972656 -7.816406 84.933594 -12.027344 88.539062 -17.136719 C 92.148438 -22.246094 94.851562 -28.109375 96.507812 -34.722656 C 98.011719 -41.339844 98.914062 -48.101562 98.914062 -55.019531 Z M 98.914062 -110.1875 "/></g></g><g style="fill:rgb(100%,34.118652%,19.999695%);fill-opacity:1;"><g transform="translate(1070.217542, 258.244709)"><path style="stroke:none;" d="M 98.914062 -55.167969 C 98.914062 -62.082031 97.859375 -68.699219 95.90625 -75.3125 C 93.953125 -81.925781 91.09375 -87.789062 87.1875 -92.898438 C 83.277344 -98.011719 78.316406 -102.21875 72.457031 -105.375 C 66.441406 -108.53125 59.527344 -110.1875 51.710938 -110.1875 C 43.894531 -110.1875 36.980469 -108.53125 31.117188 -105.375 C 25.105469 -102.21875 20.144531 -98.011719 16.234375 -92.898438 C 12.328125 -87.789062 9.320312 -81.925781 7.367188 -75.3125 C 5.410156 -68.699219 4.507812 -62.082031 4.507812 -55.167969 C 4.507812 -48.402344 5.410156 -41.789062 7.367188 -35.324219 C 9.167969 -28.863281 12.027344 -23 15.785156 -17.886719 C 19.542969 -12.777344 24.203125 -8.570312 29.914062 -5.410156 C 35.625 -2.105469 42.242188 -0.449219 49.757812 -0.148438 L 59.527344 15.632812 L 83.277344 15.632812 L 70.800781 -4.058594 C 75.460938 -6.164062 79.519531 -9.019531 83.128906 -12.628906 C 86.585938 -16.234375 89.441406 -20.292969 91.847656 -24.804688 C 94.253906 -29.3125 95.90625 -34.273438 97.109375 -39.382812 C 98.3125 -44.496094 98.914062 -49.757812 98.914062 -55.167969 Z M 51.710938 -94.554688 C 53.515625 -94.554688 55.46875 -93.800781 57.421875 -92.296875 C 59.226562 -90.792969 61.03125 -88.390625 62.535156 -85.234375 C 64.039062 -81.925781 65.238281 -77.867188 66.140625 -72.90625 C 67.042969 -67.945312 67.496094 -62.082031 67.496094 -55.167969 C 67.496094 -48.253906 67.042969 -42.242188 66.140625 -37.28125 C 65.238281 -32.320312 64.039062 -28.261719 62.535156 -25.105469 C 61.03125 -21.796875 59.226562 -19.542969 57.421875 -18.039062 C 55.46875 -16.535156 53.515625 -15.785156 51.710938 -15.785156 C 49.605469 -15.785156 47.652344 -16.535156 45.847656 -18.039062 C 44.042969 -19.542969 42.390625 -21.796875 40.886719 -25.105469 C 39.382812 -28.261719 38.183594 -32.320312 37.28125 -37.28125 C 36.378906 -42.242188 35.925781 -48.253906 35.925781 -55.167969 C 35.925781 -62.082031 36.378906 -67.945312 37.28125 -72.90625 C 38.183594 -77.867188 39.382812 -81.925781 40.886719 -85.234375 C 42.390625 -88.390625 44.042969 -90.792969 45.847656 -92.296875 C 47.652344 -93.800781 49.605469 -94.554688 51.710938 -94.554688 Z M 51.710938 -94.554688 "/></g></g><g style="fill:rgb(100%,34.118652%,19.999695%);fill-opacity:1;"><g transform="translate(1173.635185, 258.244709)"><path style="stroke:none;" d="M 98.914062 -110.1875 L 67.496094 -110.1875 L 67.496094 -55.019531 C 67.496094 -41.1875 66.292969 -31.265625 64.039062 -25.105469 C 61.632812 -18.789062 57.574219 -15.785156 51.710938 -15.785156 C 48.703125 -15.785156 46.300781 -16.535156 44.34375 -18.039062 C 42.242188 -19.542969 40.585938 -21.796875 39.382812 -25.105469 C 38.183594 -28.261719 37.28125 -32.320312 36.679688 -37.28125 C 36.078125 -42.089844 35.925781 -48.101562 35.925781 -55.019531 L 35.925781 -110.1875 L 4.507812 -110.1875 L 4.507812 -55.019531 C 4.507812 -48.101562 5.261719 -41.339844 6.914062 -34.722656 C 8.417969 -28.109375 11.125 -22.246094 14.882812 -17.136719 C 18.488281 -12.027344 23.449219 -7.816406 29.464844 -4.660156 C 35.476562 -1.503906 42.84375 0 51.710938 0 C 60.429688 0 67.945312 -1.503906 73.957031 -4.660156 C 79.972656 -7.816406 84.933594 -12.027344 88.539062 -17.136719 C 92.148438 -22.246094 94.851562 -28.109375 96.507812 -34.722656 C 98.011719 -41.339844 98.914062 -48.101562 98.914062 -55.019531 Z M 98.914062 -110.1875 "/></g></g><g style="fill:rgb(100%,34.118652%,19.999695%);fill-opacity:1;"><g transform="translate(1277.052828, 258.244709)"><path style="stroke:none;" d="M 78.316406 -23.601562 L 38.933594 -23.601562 L 38.933594 -43.292969 L 70.5 -43.292969 L 70.5 -66.894531 L 38.933594 -66.894531 L 38.933594 -86.585938 L 74.410156 -86.585938 L 70.5 -110.1875 L 7.515625 -110.1875 L 7.515625 0 L 74.410156 0 Z M 78.316406 -23.601562 "/></g></g><g style="fill:rgb(100%,34.118652%,19.999695%);fill-opacity:1;"><g transform="translate(1362.883467, 258.244709)"><path style="stroke:none;" d=""/></g></g><g style="fill:rgb(100%,34.118652%,19.999695%);fill-opacity:1;"><g transform="translate(1407.978359, 258.244709)"><path style="stroke:none;" d="M 56.972656 -31.417969 L 65.992188 0 L 97.410156 0 L 65.992188 -110.1875 L 34.425781 -110.1875 L 3.007812 0 L 26.605469 0 L 35.625 -31.417969 Z M 52.460938 -47.203125 L 40.136719 -47.203125 L 46.300781 -68.847656 Z M 52.460938 -47.203125 "/></g></g><g style="fill:rgb(100%,34.118652%,19.999695%);fill-opacity:1;"><g transform="translate(1508.389686, 258.244709)"><path style="stroke:none;" d="M 7.515625 -110.1875 L 7.515625 0 L 31.117188 0 L 31.117188 -66.140625 L 66.59375 0 L 101.917969 0 L 101.917969 -110.1875 L 78.316406 -110.1875 L 78.316406 -44.042969 L 42.992188 -110.1875 Z M 7.515625 -110.1875 "/></g></g><g style="fill:rgb(100%,34.118652%,19.999695%);fill-opacity:1;"><g transform="translate(1617.820008, 258.244709)"><path style="stroke:none;" d="M 56.972656 -31.417969 L 65.992188 0 L 97.410156 0 L 65.992188 -110.1875 L 34.425781 -110.1875 L 3.007812 0 L 26.605469 0 L 35.625 -31.417969 Z M 52.460938 -47.203125 L 40.136719 -47.203125 L 46.300781 -68.847656 Z M 52.460938 -47.203125 "/></g></g><g style="fill:rgb(100%,34.118652%,19.999695%);fill-opacity:1;"><g transform="translate(1718.231289, 258.244709)"><path style="stroke:none;" d="M 74.410156 0 L 70.5 -23.601562 L 38.933594 -23.601562 L 38.933594 -110.1875 L 7.515625 -110.1875 L 7.515625 0 Z M 74.410156 0 "/></g></g><g style="fill:rgb(100%,34.118652%,19.999695%);fill-opacity:1;"><g transform="translate(1795.644249, 258.244709)"><path style="stroke:none;" d="M 98.914062 -110.1875 L 75.3125 -110.1875 C 75.160156 -109.886719 75.160156 -109.886719 75.3125 -110.035156 C 75.3125 -110.1875 75.3125 -110.1875 75.160156 -109.886719 C 75.011719 -109.585938 74.710938 -108.683594 74.109375 -107.480469 C 73.507812 -106.277344 72.605469 -104.171875 71.402344 -101.167969 C 70.199219 -98.160156 68.398438 -93.953125 66.140625 -88.839844 C 63.886719 -83.578125 61.03125 -76.816406 57.574219 -68.699219 C 53.964844 -76.816406 51.109375 -83.578125 49.003906 -88.839844 C 46.75 -93.953125 44.945312 -98.160156 43.742188 -101.167969 C 42.390625 -104.171875 41.488281 -106.277344 41.039062 -107.480469 C 40.4375 -108.683594 40.136719 -109.585938 39.984375 -109.886719 C 39.835938 -110.1875 39.835938 -110.1875 39.984375 -110.035156 C 39.984375 -109.886719 39.984375 -109.886719 39.984375 -110.1875 L 4.507812 -110.1875 L 35.925781 -36.378906 L 35.925781 0 L 67.496094 0 L 67.496094 -36.378906 Z M 98.914062 -110.1875 "/></g></g><g style="fill:rgb(100%,34.118652%,19.999695%);fill-opacity:1;"><g transform="translate(1899.061938, 258.244709)"><path style="stroke:none;" d="M 62.082031 -86.585938 L 89.59375 -86.585938 L 85.683594 -110.1875 L 6.914062 -110.1875 L 3.007812 -86.585938 L 30.515625 -86.585938 L 30.515625 0 L 62.082031 0 Z M 62.082031 -86.585938 "/></g></g><g style="fill:rgb(100%,34.118652%,19.999695%);fill-opacity:1;"><g transform="translate(1991.656813, 258.244709)"><path style="stroke:none;" d="M 7.515625 -110.1875 L 7.515625 0 L 38.933594 0 L 38.933594 -110.1875 Z M 7.515625 -110.1875 "/></g></g><g style="fill:rgb(100%,34.118652%,19.999695%);fill-opacity:1;"><g transform="translate(2038.104534, 258.244709)"><path style="stroke:none;" d="M 59.527344 -15.785156 C 55.621094 -15.785156 52.160156 -16.835938 49.15625 -19.089844 C 46.148438 -21.347656 43.742188 -24.351562 41.789062 -28.109375 C 39.835938 -31.71875 38.332031 -35.925781 37.429688 -40.738281 C 36.378906 -45.398438 35.925781 -50.207031 35.925781 -55.167969 C 35.925781 -59.980469 36.378906 -64.789062 37.429688 -69.449219 C 38.332031 -74.109375 39.835938 -78.316406 41.789062 -82.074219 C 43.742188 -85.683594 46.148438 -88.691406 49.15625 -90.945312 C 52.160156 -93.199219 55.621094 -94.402344 59.527344 -94.402344 C 62.382812 -94.402344 65.089844 -93.652344 67.496094 -92.449219 C 69.898438 -91.246094 72.003906 -89.894531 73.808594 -88.539062 C 75.761719 -86.734375 77.566406 -84.78125 79.21875 -82.675781 L 91.09375 -94.402344 C 88.539062 -97.257812 85.535156 -99.8125 82.226562 -102.21875 C 79.21875 -104.171875 75.613281 -105.976562 71.101562 -107.632812 C 66.59375 -109.285156 61.480469 -110.1875 55.621094 -110.1875 C 47.050781 -110.1875 39.535156 -108.53125 33.222656 -105.375 C 26.90625 -102.21875 21.496094 -98.011719 17.285156 -92.898438 C 13.078125 -87.636719 9.769531 -81.777344 7.667969 -75.160156 C 5.5625 -68.546875 4.507812 -61.78125 4.507812 -54.867188 C 4.507812 -47.953125 5.5625 -41.1875 7.667969 -34.574219 C 9.769531 -27.960938 12.925781 -22.246094 17.136719 -17.136719 C 21.347656 -12.027344 26.757812 -7.816406 33.222656 -4.660156 C 39.535156 -1.503906 47.050781 0 55.621094 0 C 61.480469 0 66.59375 -0.75 71.101562 -2.40625 C 75.613281 -3.910156 79.21875 -5.710938 82.226562 -7.816406 C 85.535156 -10.070312 88.539062 -12.777344 91.09375 -15.785156 L 79.21875 -27.507812 C 77.566406 -25.253906 75.761719 -23.300781 73.808594 -21.644531 C 72.003906 -20.144531 69.898438 -18.789062 67.496094 -17.585938 C 65.089844 -16.386719 62.382812 -15.785156 59.527344 -15.785156 Z M 59.527344 -15.785156 "/></g></g><g style="fill:rgb(100%,34.118652%,19.999695%);fill-opacity:1;"><g transform="translate(2133.705726, 258.244709)"><path style="stroke:none;" d="M 59.527344 -23.601562 C 59.527344 -21.496094 58.476562 -19.691406 56.519531 -18.1875 C 54.566406 -16.535156 51.710938 -15.785156 47.800781 -15.785156 C 44.496094 -15.785156 41.1875 -16.386719 38.183594 -17.886719 C 35.175781 -19.242188 32.320312 -20.894531 29.765625 -23 C 27.058594 -25.105469 24.804688 -27.359375 22.699219 -29.765625 C 20.59375 -32.167969 18.789062 -34.574219 17.4375 -36.679688 L 4.507812 -23.601562 C 8.117188 -19.089844 11.726562 -15.484375 15.332031 -12.476562 C 18.941406 -9.46875 22.699219 -7.066406 26.605469 -5.261719 C 30.363281 -3.308594 34.273438 -1.953125 38.484375 -1.203125 C 42.691406 -0.300781 47.050781 0 51.710938 0 C 58.625 0 64.488281 -1.050781 69.449219 -3.15625 C 74.410156 -5.261719 78.46875 -7.96875 81.777344 -11.273438 C 84.933594 -14.429688 87.335938 -17.886719 88.839844 -21.496094 C 90.34375 -25.105469 91.09375 -28.410156 91.09375 -31.417969 C 91.09375 -37.28125 89.742188 -42.390625 87.035156 -46.75 C 84.332031 -51.109375 80.875 -54.867188 76.816406 -58.175781 C 72.605469 -61.480469 68.246094 -64.339844 63.4375 -66.894531 C 58.625 -69.296875 54.265625 -71.703125 50.207031 -73.808594 C 46 -75.914062 42.691406 -77.867188 39.984375 -79.972656 C 37.28125 -81.925781 35.925781 -84.179688 35.925781 -86.585938 C 35.925781 -88.539062 36.828125 -90.34375 38.933594 -91.996094 C 40.886719 -93.5 43.894531 -94.402344 47.800781 -94.402344 C 51.109375 -94.402344 54.265625 -93.652344 57.273438 -92.296875 C 60.28125 -90.792969 63.136719 -89.140625 65.839844 -87.035156 C 68.398438 -84.933594 70.800781 -82.675781 72.90625 -80.273438 C 75.011719 -77.867188 76.664062 -75.613281 78.167969 -73.507812 L 91.09375 -86.585938 C 83.878906 -95.152344 76.515625 -101.167969 68.996094 -104.773438 C 61.480469 -108.382812 53.0625 -110.1875 43.894531 -110.1875 C 36.980469 -110.1875 30.964844 -108.984375 26.003906 -106.878906 C 21.046875 -104.773438 16.988281 -102.070312 13.828125 -98.914062 C 10.523438 -95.605469 8.269531 -92.148438 6.765625 -88.539062 C 5.261719 -84.933594 4.507812 -81.625 4.507812 -78.769531 C 4.507812 -72.757812 5.863281 -67.644531 8.570312 -63.285156 C 11.273438 -58.925781 14.582031 -55.167969 18.789062 -51.859375 C 22.847656 -48.554688 27.207031 -45.699219 32.019531 -43.292969 C 36.828125 -40.738281 41.1875 -38.484375 45.246094 -36.378906 C 49.304688 -34.273438 52.761719 -32.167969 55.46875 -30.214844 C 58.175781 -28.109375 59.527344 -26.003906 59.527344 -23.601562 Z M 59.527344 -23.601562 "/></g></g><g style="fill:rgb(100%,73.728943%,1.179504%);fill-opacity:1;"><g transform="translate(1478.58237, 453.919051)"><path style="stroke:none;" d=""/></g></g><path style=" stroke:none;fill-rule:nonzero;fill:rgb(100%,34.118652%,19.999695%);fill-opacity:1;" d="M 225.441406 179.457031 C 181.363281 179.457031 145.855469 214.964844 145.855469 259.042969 C 145.855469 303.121094 181.363281 338.628906 225.441406 338.628906 C 269.113281 338.628906 305.027344 303.121094 305.027344 259.042969 C 305.027344 214.964844 269.113281 179.457031 225.441406 179.457031 Z M 225.441406 326.386719 C 188.300781 326.386719 158.101562 296.183594 158.101562 259.042969 C 158.101562 221.902344 188.300781 191.703125 225.441406 191.703125 C 262.582031 191.703125 292.785156 221.902344 292.785156 259.042969 C 292.785156 296.183594 262.582031 326.386719 225.441406 326.386719 Z M 225.441406 326.386719 "/><path style=" stroke:none;fill-rule:nonzero;fill:rgb(32.939148%,32.939148%,32.939148%);fill-opacity:1;" d="M 225.441406 191.703125 C 188.300781 191.703125 158.101562 221.902344 158.101562 259.042969 C 158.101562 296.183594 188.300781 326.386719 225.441406 326.386719 C 262.582031 326.386719 292.785156 296.183594 292.785156 259.042969 C 292.785156 221.902344 262.582031 191.703125 225.441406 191.703125 Z M 225.441406 191.703125 "/><path style=" stroke:none;fill-rule:nonzero;fill:rgb(100%,34.118652%,19.999695%);fill-opacity:1;" d="M 393.683594 249.097656 C 349.605469 249.097656 314.097656 284.605469 314.097656 328.683594 C 314.097656 372.765625 349.605469 408.273438 393.683594 408.273438 C 437.355469 408.273438 473.269531 372.765625 473.269531 328.683594 C 473.269531 284.605469 437.355469 249.097656 393.683594 249.097656 Z M 393.683594 396.027344 C 356.542969 396.027344 326.34375 365.824219 326.34375 328.683594 C 326.34375 291.546875 356.542969 261.34375 393.683594 261.34375 C 430.824219 261.34375 461.027344 291.546875 461.027344 328.683594 C 461.027344 365.824219 430.824219 396.027344 393.683594 396.027344 Z M 393.683594 396.027344 "/><path style=" stroke:none;fill-rule:nonzero;fill:rgb(32.939148%,32.939148%,32.939148%);fill-opacity:1;" d="M 393.683594 261.34375 C 356.542969 261.34375 326.34375 291.546875 326.34375 328.683594 C 326.34375 365.824219 356.542969 396.027344 393.683594 396.027344 C 430.824219 396.027344 461.027344 365.824219 461.027344 328.683594 C 461.027344 291.546875 430.824219 261.34375 393.683594 261.34375 Z M 393.683594 261.34375 "/><path style=" stroke:none;fill-rule:nonzero;fill:rgb(100%,34.118652%,19.999695%);fill-opacity:1;" d="M 81.449219 315.246094 C 37.371094 315.246094 1.863281 350.753906 1.863281 394.832031 C 1.863281 438.914062 37.371094 474.417969 81.449219 474.417969 C 125.117188 474.417969 161.035156 438.914062 161.035156 394.832031 C 161.035156 350.753906 125.117188 315.246094 81.449219 315.246094 Z M 81.449219 462.175781 C 44.308594 462.175781 14.105469 431.972656 14.105469 394.832031 C 14.105469 357.695312 44.308594 327.492188 81.449219 327.492188 C 118.589844 327.492188 148.789062 357.695312 148.789062 394.832031 C 148.789062 431.972656 118.589844 462.175781 81.449219 462.175781 Z M 81.449219 462.175781 "/><path style=" stroke:none;fill-rule:nonzero;fill:rgb(32.939148%,32.939148%,32.939148%);fill-opacity:1;" d="M 81.449219 327.492188 C 44.308594 327.492188 14.105469 357.695312 14.105469 394.832031 C 14.105469 431.972656 44.308594 462.175781 81.449219 462.175781 C 118.589844 462.175781 148.789062 431.972656 148.789062 394.832031 C 148.789062 357.695312 118.589844 327.492188 81.449219 327.492188 Z M 81.449219 327.492188 "/><g clip-rule="nonzero" clip-path="url(#clip1)"><g clip-rule="nonzero" clip-path="url(#clip2)"><g clip-rule="nonzero" clip-path="url(#clip3)"><path style=" stroke:none;fill-rule:nonzero;fill:rgb(100%,34.118652%,19.999695%);fill-opacity:1;" d="M 612.886719 204.804688 L 634.070312 80.921875 C 635.332031 75.796875 634.523438 72.011719 632.1875 70.023438 C 629.851562 68.03125 625.988281 67.839844 621.128906 69.898438 L 500.75 109.28125 C 491.191406 113.222656 489.738281 122.210938 497.644531 128.945312 L 593.96875 211 C 601.875 217.734375 610.363281 215.050781 612.886719 204.804688 Z M 612.886719 204.804688 "/></g></g></g><g style="fill:rgb(100%,73.728943%,1.179504%);fill-opacity:1;"><g transform="translate(969.563466, 386.436184)"><path style="stroke:none;" d="M 27.671875 -37.234375 L 40.875 -63.296875 L 55.328125 -63.296875 L 34.328125 -24.640625 L 34.328125 0 L 21 0 L 21 -24.203125 L 0 -63.296875 L 14.546875 -63.296875 Z M 27.671875 -37.234375 "/></g></g><g style="fill:rgb(100%,73.728943%,1.179504%);fill-opacity:1;"><g transform="translate(1024.891916, 386.436184)"><path style="stroke:none;" d="M 17.453125 -24.296875 C 17.453125 -19.503906 18.238281 -15.878906 19.8125 -13.421875 C 21.382812 -10.960938 23.945312 -9.734375 27.5 -9.734375 C 31.019531 -9.734375 33.550781 -10.953125 35.09375 -13.390625 C 36.632812 -15.835938 37.40625 -19.472656 37.40625 -24.296875 C 37.40625 -29.085938 36.625 -32.675781 35.0625 -35.0625 C 33.507812 -37.457031 30.957031 -38.65625 27.40625 -38.65625 C 23.882812 -38.65625 21.34375 -37.460938 19.78125 -35.078125 C 18.226562 -32.703125 17.453125 -29.109375 17.453125 -24.296875 Z M 50.921875 -24.296875 C 50.921875 -16.410156 48.84375 -10.242188 44.6875 -5.796875 C 40.53125 -1.359375 34.738281 0.859375 27.3125 0.859375 C 22.664062 0.859375 18.566406 -0.15625 15.015625 -2.1875 C 11.472656 -4.21875 8.75 -7.140625 6.84375 -10.953125 C 4.9375 -14.765625 3.984375 -19.210938 3.984375 -24.296875 C 3.984375 -32.203125 6.046875 -38.347656 10.171875 -42.734375 C 14.296875 -47.117188 20.097656 -49.3125 27.578125 -49.3125 C 32.222656 -49.3125 36.320312 -48.300781 39.875 -46.28125 C 43.425781 -44.257812 46.15625 -41.359375 48.0625 -37.578125 C 49.96875 -33.796875 50.921875 -29.367188 50.921875 -24.296875 Z M 50.921875 -24.296875 "/></g></g><g style="fill:rgb(100%,73.728943%,1.179504%);fill-opacity:1;"><g transform="translate(1079.787437, 386.436184)"><path style="stroke:none;" d="M 41.21875 0 L 39.4375 -6.1875 L 38.75 -6.1875 C 37.332031 -3.9375 35.320312 -2.195312 32.71875 -0.96875 C 30.125 0.25 27.171875 0.859375 23.859375 0.859375 C 18.171875 0.859375 13.882812 -0.660156 11 -3.703125 C 8.113281 -6.742188 6.671875 -11.125 6.671875 -16.84375 L 6.671875 -48.40625 L 19.875 -48.40625 L 19.875 -20.140625 C 19.875 -16.640625 20.492188 -14.015625 21.734375 -12.265625 C 22.972656 -10.523438 24.953125 -9.65625 27.671875 -9.65625 C 31.359375 -9.65625 34.023438 -10.890625 35.671875 -13.359375 C 37.316406 -15.828125 38.140625 -19.914062 38.140625 -25.625 L 38.140625 -48.40625 L 51.34375 -48.40625 L 51.34375 0 Z M 41.21875 0 "/></g></g><g style="fill:rgb(100%,73.728943%,1.179504%);fill-opacity:1;"><g transform="translate(1138.059811, 386.436184)"><path style="stroke:none;" d="M 33.9375 -49.3125 C 35.726562 -49.3125 37.21875 -49.179688 38.40625 -48.921875 L 37.40625 -36.546875 C 36.34375 -36.828125 35.046875 -36.96875 33.515625 -36.96875 C 29.296875 -36.96875 26.007812 -35.882812 23.65625 -33.71875 C 21.3125 -31.5625 20.140625 -28.535156 20.140625 -24.640625 L 20.140625 0 L 6.921875 0 L 6.921875 -48.40625 L 16.921875 -48.40625 L 18.875 -40.265625 L 19.53125 -40.265625 C 21.03125 -42.984375 23.054688 -45.171875 25.609375 -46.828125 C 28.160156 -48.484375 30.9375 -49.3125 33.9375 -49.3125 Z M 33.9375 -49.3125 "/></g></g><g style="fill:rgb(100%,73.728943%,1.179504%);fill-opacity:1;"><g transform="translate(1178.322299, 386.436184)"><path style="stroke:none;" d=""/></g></g><g style="fill:rgb(100%,73.728943%,1.179504%);fill-opacity:1;"><g transform="translate(1201.354173, 386.436184)"><path style="stroke:none;" d="M 7.96875 -63.296875 L 27.671875 -63.296875 C 36.640625 -63.296875 43.148438 -62.019531 47.203125 -59.46875 C 51.265625 -56.914062 53.296875 -52.851562 53.296875 -47.28125 C 53.296875 -43.5 52.40625 -40.394531 50.625 -37.96875 C 48.851562 -35.539062 46.5 -34.082031 43.5625 -33.59375 L 43.5625 -33.171875 C 47.570312 -32.273438 50.460938 -30.597656 52.234375 -28.140625 C 54.015625 -25.691406 54.90625 -22.429688 54.90625 -18.359375 C 54.90625 -12.585938 52.816406 -8.082031 48.640625 -4.84375 C 44.472656 -1.613281 38.8125 0 31.65625 0 L 7.96875 0 Z M 21.390625 -38.234375 L 29.1875 -38.234375 C 32.820312 -38.234375 35.453125 -38.796875 37.078125 -39.921875 C 38.710938 -41.046875 39.53125 -42.90625 39.53125 -45.5 C 39.53125 -47.925781 38.640625 -49.664062 36.859375 -50.71875 C 35.085938 -51.769531 32.285156 -52.296875 28.453125 -52.296875 L 21.390625 -52.296875 Z M 21.390625 -27.578125 L 21.390625 -11.078125 L 30.140625 -11.078125 C 33.828125 -11.078125 36.550781 -11.785156 38.3125 -13.203125 C 40.070312 -14.617188 40.953125 -16.785156 40.953125 -19.703125 C 40.953125 -24.953125 37.203125 -27.578125 29.703125 -27.578125 Z M 21.390625 -27.578125 "/></g></g><g style="fill:rgb(100%,73.728943%,1.179504%);fill-opacity:1;"><g transform="translate(1260.925337, 386.436184)"><path style="stroke:none;" d="M 6.359375 -60.921875 C 6.359375 -65.222656 8.753906 -67.375 13.546875 -67.375 C 18.335938 -67.375 20.734375 -65.222656 20.734375 -60.921875 C 20.734375 -58.867188 20.132812 -57.269531 18.9375 -56.125 C 17.738281 -54.988281 15.941406 -54.421875 13.546875 -54.421875 C 8.753906 -54.421875 6.359375 -56.585938 6.359375 -60.921875 Z M 20.140625 0 L 6.921875 0 L 6.921875 -48.40625 L 20.140625 -48.40625 Z M 20.140625 0 "/></g></g><g style="fill:rgb(100%,73.728943%,1.179504%);fill-opacity:1;"><g transform="translate(1287.983449, 386.436184)"><path style="stroke:none;" d="M 49.0625 -48.40625 L 49.0625 -41.6875 L 41.484375 -39.75 C 42.867188 -37.582031 43.5625 -35.15625 43.5625 -32.46875 C 43.5625 -27.269531 41.75 -23.21875 38.125 -20.3125 C 34.5 -17.414062 29.46875 -15.96875 23.03125 -15.96875 L 20.65625 -16.109375 L 18.703125 -16.328125 C 17.347656 -15.285156 16.671875 -14.128906 16.671875 -12.859375 C 16.671875 -10.953125 19.09375 -10 23.9375 -10 L 32.171875 -10 C 37.484375 -10 41.53125 -8.859375 44.3125 -6.578125 C 47.101562 -4.296875 48.5 -0.945312 48.5 3.46875 C 48.5 9.125 46.132812 13.507812 41.40625 16.625 C 36.6875 19.738281 29.910156 21.296875 21.078125 21.296875 C 14.328125 21.296875 9.171875 20.117188 5.609375 17.765625 C 2.046875 15.421875 0.265625 12.125 0.265625 7.875 C 0.265625 4.957031 1.171875 2.519531 2.984375 0.5625 C 4.804688 -1.394531 7.476562 -2.796875 11 -3.640625 C 9.644531 -4.210938 8.460938 -5.15625 7.453125 -6.46875 C 6.441406 -7.78125 5.9375 -9.175781 5.9375 -10.65625 C 5.9375 -12.5 6.46875 -14.035156 7.53125 -15.265625 C 8.601562 -16.492188 10.148438 -17.695312 12.171875 -18.875 C 9.628906 -19.96875 7.613281 -21.726562 6.125 -24.15625 C 4.632812 -26.582031 3.890625 -29.441406 3.890625 -32.734375 C 3.890625 -38.015625 5.609375 -42.097656 9.046875 -44.984375 C 12.484375 -47.867188 17.390625 -49.3125 23.765625 -49.3125 C 25.128906 -49.3125 26.738281 -49.1875 28.59375 -48.9375 C 30.457031 -48.695312 31.648438 -48.519531 32.171875 -48.40625 Z M 11.6875 6.84375 C 11.6875 8.65625 12.554688 10.082031 14.296875 11.125 C 16.046875 12.164062 18.492188 12.6875 21.640625 12.6875 C 26.378906 12.6875 30.085938 12.035156 32.765625 10.734375 C 35.453125 9.441406 36.796875 7.664062 36.796875 5.40625 C 36.796875 3.59375 36.003906 2.335938 34.421875 1.640625 C 32.835938 0.953125 30.382812 0.609375 27.0625 0.609375 L 20.21875 0.609375 C 17.789062 0.609375 15.757812 1.175781 14.125 2.3125 C 12.5 3.457031 11.6875 4.96875 11.6875 6.84375 Z M 16.5 -32.5625 C 16.5 -29.9375 17.097656 -27.859375 18.296875 -26.328125 C 19.492188 -24.796875 21.316406 -24.03125 23.765625 -24.03125 C 26.253906 -24.03125 28.070312 -24.796875 29.21875 -26.328125 C 30.375 -27.859375 30.953125 -29.9375 30.953125 -32.5625 C 30.953125 -38.394531 28.554688 -41.3125 23.765625 -41.3125 C 18.921875 -41.3125 16.5 -38.394531 16.5 -32.5625 Z M 16.5 -32.5625 "/></g></g><g style="fill:rgb(100%,73.728943%,1.179504%);fill-opacity:1;"><g transform="translate(1338.073458, 386.436184)"><path style="stroke:none;" d=""/></g></g><g style="fill:rgb(100%,73.728943%,1.179504%);fill-opacity:1;"><g transform="translate(1361.105332, 386.436184)"><path style="stroke:none;" d="M 60.484375 -32.25 C 60.484375 -21.832031 57.515625 -13.851562 51.578125 -8.3125 C 45.648438 -2.769531 37.085938 0 25.890625 0 L 7.96875 0 L 7.96875 -63.296875 L 27.84375 -63.296875 C 38.175781 -63.296875 46.195312 -60.566406 51.90625 -55.109375 C 57.625 -49.660156 60.484375 -42.039062 60.484375 -32.25 Z M 46.546875 -31.90625 C 46.546875 -45.5 40.539062 -52.296875 28.53125 -52.296875 L 21.390625 -52.296875 L 21.390625 -11.078125 L 27.140625 -11.078125 C 40.078125 -11.078125 46.546875 -18.019531 46.546875 -31.90625 Z M 46.546875 -31.90625 "/></g></g><g style="fill:rgb(100%,73.728943%,1.179504%);fill-opacity:1;"><g transform="translate(1426.737516, 386.436184)"><path style="stroke:none;" d="M 37.671875 0 L 35.109375 -6.578125 L 34.765625 -6.578125 C 32.546875 -3.773438 30.257812 -1.832031 27.90625 -0.75 C 25.550781 0.320312 22.484375 0.859375 18.703125 0.859375 C 14.054688 0.859375 10.394531 -0.460938 7.71875 -3.109375 C 5.050781 -5.765625 3.71875 -9.550781 3.71875 -14.46875 C 3.71875 -19.601562 5.515625 -23.390625 9.109375 -25.828125 C 12.703125 -28.265625 18.125 -29.613281 25.375 -29.875 L 33.765625 -30.140625 L 33.765625 -32.25 C 33.765625 -37.15625 31.253906 -39.609375 26.234375 -39.609375 C 22.367188 -39.609375 17.820312 -38.441406 12.59375 -36.109375 L 8.21875 -45.03125 C 13.789062 -47.945312 19.96875 -49.40625 26.75 -49.40625 C 33.25 -49.40625 38.226562 -47.988281 41.6875 -45.15625 C 45.15625 -42.332031 46.890625 -38.03125 46.890625 -32.25 L 46.890625 0 Z M 33.765625 -22.421875 L 28.65625 -22.25 C 24.820312 -22.132812 21.96875 -21.441406 20.09375 -20.171875 C 18.21875 -18.898438 17.28125 -16.96875 17.28125 -14.375 C 17.28125 -10.65625 19.414062 -8.796875 23.6875 -8.796875 C 26.738281 -8.796875 29.179688 -9.675781 31.015625 -11.4375 C 32.847656 -13.195312 33.765625 -15.53125 33.765625 -18.4375 Z M 33.765625 -22.421875 "/></g></g><g style="fill:rgb(100%,73.728943%,1.179504%);fill-opacity:1;"><g transform="translate(1480.290965, 386.436184)"><path style="stroke:none;" d="M 27.3125 -9.65625 C 29.625 -9.65625 32.398438 -10.160156 35.640625 -11.171875 L 35.640625 -1.34375 C 32.347656 0.125 28.304688 0.859375 23.515625 0.859375 C 18.234375 0.859375 14.382812 -0.472656 11.96875 -3.140625 C 9.5625 -5.804688 8.359375 -9.8125 8.359375 -15.15625 L 8.359375 -38.484375 L 2.03125 -38.484375 L 2.03125 -44.078125 L 9.3125 -48.5 L 13.125 -58.703125 L 21.5625 -58.703125 L 21.5625 -48.40625 L 35.109375 -48.40625 L 35.109375 -38.484375 L 21.5625 -38.484375 L 21.5625 -15.15625 C 21.5625 -13.28125 22.085938 -11.894531 23.140625 -11 C 24.191406 -10.101562 25.582031 -9.65625 27.3125 -9.65625 Z M 27.3125 -9.65625 "/></g></g><g style="fill:rgb(100%,73.728943%,1.179504%);fill-opacity:1;"><g transform="translate(1518.77845, 386.436184)"><path style="stroke:none;" d="M 37.671875 0 L 35.109375 -6.578125 L 34.765625 -6.578125 C 32.546875 -3.773438 30.257812 -1.832031 27.90625 -0.75 C 25.550781 0.320312 22.484375 0.859375 18.703125 0.859375 C 14.054688 0.859375 10.394531 -0.460938 7.71875 -3.109375 C 5.050781 -5.765625 3.71875 -9.550781 3.71875 -14.46875 C 3.71875 -19.601562 5.515625 -23.390625 9.109375 -25.828125 C 12.703125 -28.265625 18.125 -29.613281 25.375 -29.875 L 33.765625 -30.140625 L 33.765625 -32.25 C 33.765625 -37.15625 31.253906 -39.609375 26.234375 -39.609375 C 22.367188 -39.609375 17.820312 -38.441406 12.59375 -36.109375 L 8.21875 -45.03125 C 13.789062 -47.945312 19.96875 -49.40625 26.75 -49.40625 C 33.25 -49.40625 38.226562 -47.988281 41.6875 -45.15625 C 45.15625 -42.332031 46.890625 -38.03125 46.890625 -32.25 L 46.890625 0 Z M 33.765625 -22.421875 L 28.65625 -22.25 C 24.820312 -22.132812 21.96875 -21.441406 20.09375 -20.171875 C 18.21875 -18.898438 17.28125 -16.96875 17.28125 -14.375 C 17.28125 -10.65625 19.414062 -8.796875 23.6875 -8.796875 C 26.738281 -8.796875 29.179688 -9.675781 31.015625 -11.4375 C 32.847656 -13.195312 33.765625 -15.53125 33.765625 -18.4375 Z M 33.765625 -22.421875 "/></g></g><g style="fill:rgb(100%,73.728943%,1.179504%);fill-opacity:1;"><g transform="translate(1572.331899, 386.436184)"><path style="stroke:none;" d=""/></g></g><g style="fill:rgb(100%,73.728943%,1.179504%);fill-opacity:1;"><g transform="translate(1595.363773, 386.436184)"><path style="stroke:none;" d="M 45.328125 -17.578125 C 45.328125 -11.859375 43.269531 -7.351562 39.15625 -4.0625 C 35.039062 -0.78125 29.320312 0.859375 22 0.859375 C 15.238281 0.859375 9.257812 -0.40625 4.0625 -2.9375 L 4.0625 -15.40625 C 8.34375 -13.507812 11.960938 -12.171875 14.921875 -11.390625 C 17.878906 -10.609375 20.582031 -10.21875 23.03125 -10.21875 C 25.976562 -10.21875 28.238281 -10.78125 29.8125 -11.90625 C 31.382812 -13.03125 32.171875 -14.703125 32.171875 -16.921875 C 32.171875 -18.171875 31.820312 -19.273438 31.125 -20.234375 C 30.4375 -21.203125 29.421875 -22.132812 28.078125 -23.03125 C 26.734375 -23.925781 24 -25.351562 19.875 -27.3125 C 16.007812 -29.132812 13.109375 -30.882812 11.171875 -32.5625 C 9.234375 -34.238281 7.6875 -36.1875 6.53125 -38.40625 C 5.382812 -40.625 4.8125 -43.222656 4.8125 -46.203125 C 4.8125 -51.796875 6.707031 -56.191406 10.5 -59.390625 C 14.289062 -62.597656 19.535156 -64.203125 26.234375 -64.203125 C 29.523438 -64.203125 32.664062 -63.8125 35.65625 -63.03125 C 38.644531 -62.257812 41.769531 -61.164062 45.03125 -59.75 L 40.703125 -49.3125 C 37.328125 -50.695312 34.535156 -51.660156 32.328125 -52.203125 C 30.117188 -52.753906 27.945312 -53.03125 25.8125 -53.03125 C 23.269531 -53.03125 21.316406 -52.4375 19.953125 -51.25 C 18.597656 -50.070312 17.921875 -48.53125 17.921875 -46.625 C 17.921875 -45.445312 18.191406 -44.414062 18.734375 -43.53125 C 19.285156 -42.65625 20.160156 -41.804688 21.359375 -40.984375 C 22.554688 -40.160156 25.394531 -38.679688 29.875 -36.546875 C 35.789062 -33.710938 39.84375 -30.875 42.03125 -28.03125 C 44.226562 -25.1875 45.328125 -21.703125 45.328125 -17.578125 Z M 45.328125 -17.578125 "/></g></g><g style="fill:rgb(100%,73.728943%,1.179504%);fill-opacity:1;"><g transform="translate(1644.198274, 386.436184)"><path style="stroke:none;" d="M 17.453125 -24.296875 C 17.453125 -19.503906 18.238281 -15.878906 19.8125 -13.421875 C 21.382812 -10.960938 23.945312 -9.734375 27.5 -9.734375 C 31.019531 -9.734375 33.550781 -10.953125 35.09375 -13.390625 C 36.632812 -15.835938 37.40625 -19.472656 37.40625 -24.296875 C 37.40625 -29.085938 36.625 -32.675781 35.0625 -35.0625 C 33.507812 -37.457031 30.957031 -38.65625 27.40625 -38.65625 C 23.882812 -38.65625 21.34375 -37.460938 19.78125 -35.078125 C 18.226562 -32.703125 17.453125 -29.109375 17.453125 -24.296875 Z M 50.921875 -24.296875 C 50.921875 -16.410156 48.84375 -10.242188 44.6875 -5.796875 C 40.53125 -1.359375 34.738281 0.859375 27.3125 0.859375 C 22.664062 0.859375 18.566406 -0.15625 15.015625 -2.1875 C 11.472656 -4.21875 8.75 -7.140625 6.84375 -10.953125 C 4.9375 -14.765625 3.984375 -19.210938 3.984375 -24.296875 C 3.984375 -32.203125 6.046875 -38.347656 10.171875 -42.734375 C 14.296875 -47.117188 20.097656 -49.3125 27.578125 -49.3125 C 32.222656 -49.3125 36.320312 -48.300781 39.875 -46.28125 C 43.425781 -44.257812 46.15625 -41.359375 48.0625 -37.578125 C 49.96875 -33.796875 50.921875 -29.367188 50.921875 -24.296875 Z M 50.921875 -24.296875 "/></g></g><g style="fill:rgb(100%,73.728943%,1.179504%);fill-opacity:1;"><g transform="translate(1699.093795, 386.436184)"><path style="stroke:none;" d="M 20.140625 0 L 6.921875 0 L 6.921875 -67.375 L 20.140625 -67.375 Z M 20.140625 0 "/></g></g><g style="fill:rgb(100%,73.728943%,1.179504%);fill-opacity:1;"><g transform="translate(1726.15193, 386.436184)"><path style="stroke:none;" d="M 41.21875 0 L 39.4375 -6.1875 L 38.75 -6.1875 C 37.332031 -3.9375 35.320312 -2.195312 32.71875 -0.96875 C 30.125 0.25 27.171875 0.859375 23.859375 0.859375 C 18.171875 0.859375 13.882812 -0.660156 11 -3.703125 C 8.113281 -6.742188 6.671875 -11.125 6.671875 -16.84375 L 6.671875 -48.40625 L 19.875 -48.40625 L 19.875 -20.140625 C 19.875 -16.640625 20.492188 -14.015625 21.734375 -12.265625 C 22.972656 -10.523438 24.953125 -9.65625 27.671875 -9.65625 C 31.359375 -9.65625 34.023438 -10.890625 35.671875 -13.359375 C 37.316406 -15.828125 38.140625 -19.914062 38.140625 -25.625 L 38.140625 -48.40625 L 51.34375 -48.40625 L 51.34375 0 Z M 41.21875 0 "/></g></g><g style="fill:rgb(100%,73.728943%,1.179504%);fill-opacity:1;"><g transform="translate(1784.424327, 386.436184)"><path style="stroke:none;" d="M 27.3125 -9.65625 C 29.625 -9.65625 32.398438 -10.160156 35.640625 -11.171875 L 35.640625 -1.34375 C 32.347656 0.125 28.304688 0.859375 23.515625 0.859375 C 18.234375 0.859375 14.382812 -0.472656 11.96875 -3.140625 C 9.5625 -5.804688 8.359375 -9.8125 8.359375 -15.15625 L 8.359375 -38.484375 L 2.03125 -38.484375 L 2.03125 -44.078125 L 9.3125 -48.5 L 13.125 -58.703125 L 21.5625 -58.703125 L 21.5625 -48.40625 L 35.109375 -48.40625 L 35.109375 -38.484375 L 21.5625 -38.484375 L 21.5625 -15.15625 C 21.5625 -13.28125 22.085938 -11.894531 23.140625 -11 C 24.191406 -10.101562 25.582031 -9.65625 27.3125 -9.65625 Z M 27.3125 -9.65625 "/></g></g><g style="fill:rgb(100%,73.728943%,1.179504%);fill-opacity:1;"><g transform="translate(1822.911812, 386.436184)"><path style="stroke:none;" d="M 6.359375 -60.921875 C 6.359375 -65.222656 8.753906 -67.375 13.546875 -67.375 C 18.335938 -67.375 20.734375 -65.222656 20.734375 -60.921875 C 20.734375 -58.867188 20.132812 -57.269531 18.9375 -56.125 C 17.738281 -54.988281 15.941406 -54.421875 13.546875 -54.421875 C 8.753906 -54.421875 6.359375 -56.585938 6.359375 -60.921875 Z M 20.140625 0 L 6.921875 0 L 6.921875 -48.40625 L 20.140625 -48.40625 Z M 20.140625 0 "/></g></g><g style="fill:rgb(100%,73.728943%,1.179504%);fill-opacity:1;"><g transform="translate(1849.969947, 386.436184)"><path style="stroke:none;" d="M 17.453125 -24.296875 C 17.453125 -19.503906 18.238281 -15.878906 19.8125 -13.421875 C 21.382812 -10.960938 23.945312 -9.734375 27.5 -9.734375 C 31.019531 -9.734375 33.550781 -10.953125 35.09375 -13.390625 C 36.632812 -15.835938 37.40625 -19.472656 37.40625 -24.296875 C 37.40625 -29.085938 36.625 -32.675781 35.0625 -35.0625 C 33.507812 -37.457031 30.957031 -38.65625 27.40625 -38.65625 C 23.882812 -38.65625 21.34375 -37.460938 19.78125 -35.078125 C 18.226562 -32.703125 17.453125 -29.109375 17.453125 -24.296875 Z M 50.921875 -24.296875 C 50.921875 -16.410156 48.84375 -10.242188 44.6875 -5.796875 C 40.53125 -1.359375 34.738281 0.859375 27.3125 0.859375 C 22.664062 0.859375 18.566406 -0.15625 15.015625 -2.1875 C 11.472656 -4.21875 8.75 -7.140625 6.84375 -10.953125 C 4.9375 -14.765625 3.984375 -19.210938 3.984375 -24.296875 C 3.984375 -32.203125 6.046875 -38.347656 10.171875 -42.734375 C 14.296875 -47.117188 20.097656 -49.3125 27.578125 -49.3125 C 32.222656 -49.3125 36.320312 -48.300781 39.875 -46.28125 C 43.425781 -44.257812 46.15625 -41.359375 48.0625 -37.578125 C 49.96875 -33.796875 50.921875 -29.367188 50.921875 -24.296875 Z M 50.921875 -24.296875 "/></g></g><g style="fill:rgb(100%,73.728943%,1.179504%);fill-opacity:1;"><g transform="translate(1904.865422, 386.436184)"><path style="stroke:none;" d="M 51.609375 0 L 38.40625 0 L 38.40625 -28.265625 C 38.40625 -31.765625 37.785156 -34.382812 36.546875 -36.125 C 35.304688 -37.875 33.328125 -38.75 30.609375 -38.75 C 26.910156 -38.75 24.238281 -37.515625 22.59375 -35.046875 C 20.957031 -32.578125 20.140625 -28.488281 20.140625 -22.78125 L 20.140625 0 L 6.921875 0 L 6.921875 -48.40625 L 17.015625 -48.40625 L 18.796875 -42.21875 L 19.53125 -42.21875 C 21 -44.550781 23.023438 -46.316406 25.609375 -47.515625 C 28.191406 -48.710938 31.128906 -49.3125 34.421875 -49.3125 C 40.046875 -49.3125 44.316406 -47.785156 47.234375 -44.734375 C 50.148438 -41.691406 51.609375 -37.300781 51.609375 -31.5625 Z M 51.609375 0 "/></g></g></g></svg>