<?xml version="1.0" encoding="UTF-8"?><svg xmlns="http://www.w3.org/2000/svg" xmlns:xlink="http://www.w3.org/1999/xlink" width="2250pt" zoomAndPan="magnify" viewBox="0 0 2250 749.999995" height="749.999995pt" preserveAspectRatio="xMidYMid meet" version="1.2"><defs><g/><clipPath xml:id="clip1" id="clip1"><path d="M 566 123.199219 L 656 123.199219 L 656 214 L 566 214 Z M 566 123.199219 "/></clipPath></defs><g xml:id="surface1" id="surface1"><g style="fill:rgb(100%,34.118652%,19.999695%);fill-opacity:1;"><g transform="translate(688.864945, 258.244709)"><path style="stroke:none;" d="M 38.933594 -66.894531 L 38.933594 -86.585938 L 74.410156 -86.585938 L 70.5 -110.1875 L 7.515625 -110.1875 L 7.515625 0 L 38.933594 0 L 38.933594 -51.109375 L 70.5 -51.109375 L 70.5 -66.894531 Z M 38.933594 -66.894531 "/></g></g><g style="fill:rgb(100%,34.118652%,19.999695%);fill-opacity:1;"><g transform="translate(767.781029, 258.244709)"><path style="stroke:none;" d="M 56.972656 -31.417969 L 65.992188 0 L 97.410156 0 L 65.992188 -110.1875 L 34.425781 -110.1875 L 3.007812 0 L 26.605469 0 L 35.625 -31.417969 Z M 52.460938 -47.203125 L 40.136719 -47.203125 L 46.300781 -68.847656 Z M 52.460938 -47.203125 "/></g></g><g style="fill:rgb(100%,34.118652%,19.999695%);fill-opacity:1;"><g transform="translate(868.192355, 258.244709)"><path style="stroke:none;" d="M 94.101562 0 L 75.160156 -52.914062 C 79.671875 -55.320312 83.429688 -58.476562 86.136719 -62.683594 C 88.839844 -66.894531 90.195312 -72.15625 90.195312 -78.769531 C 90.195312 -84.632812 88.992188 -89.59375 86.734375 -93.652344 C 84.332031 -97.558594 81.324219 -100.867188 77.417969 -103.273438 C 73.507812 -105.675781 68.847656 -107.480469 63.585938 -108.53125 C 58.324219 -109.585938 52.761719 -110.1875 46.902344 -110.1875 L 7.515625 -110.1875 L 7.515625 0 L 38.933594 0 L 38.933594 -47.203125 L 46.902344 -47.203125 L 62.535156 0 Z M 38.933594 -62.984375 L 38.933594 -94.402344 C 42.242188 -94.402344 45.097656 -93.953125 47.652344 -93.050781 C 50.207031 -92.148438 52.3125 -90.945312 53.964844 -89.441406 C 55.621094 -87.9375 56.820312 -86.285156 57.722656 -84.480469 C 58.625 -82.527344 59.078125 -80.574219 59.078125 -78.617188 C 59.078125 -76.515625 58.625 -74.558594 57.722656 -72.757812 C 56.820312 -70.953125 55.621094 -69.296875 53.964844 -67.796875 C 52.3125 -66.292969 50.207031 -65.238281 47.652344 -64.339844 C 45.097656 -63.4375 42.242188 -62.984375 38.933594 -62.984375 Z M 38.933594 -62.984375 "/></g></g><g style="fill:rgb(100%,34.118652%,19.999695%);fill-opacity:1;"><g transform="translate(966.799898, 258.244709)"><path style="stroke:none;" d="M 98.914062 -110.1875 L 67.496094 -110.1875 L 67.496094 -55.019531 C 67.496094 -41.1875 66.292969 -31.265625 64.039062 -25.105469 C 61.632812 -18.789062 57.574219 -15.785156 51.710938 -15.785156 C 48.703125 -15.785156 46.300781 -16.535156 44.34375 -18.039062 C 42.242188 -19.542969 40.585938 -21.796875 39.382812 -25.105469 C 38.183594 -28.261719 37.28125 -32.320312 36.679688 -37.28125 C 36.078125 -42.089844 35.925781 -48.101562 35.925781 -55.019531 L 35.925781 -110.1875 L 4.507812 -110.1875 L 4.507812 -55.019531 C 4.507812 -48.101562 5.261719 -41.339844 6.914062 -34.722656 C 8.417969 -28.109375 11.125 -22.246094 14.882812 -17.136719 C 18.488281 -12.027344 23.449219 -7.816406 29.464844 -4.660156 C 35.476562 -1.503906 42.84375 0 51.710938 0 C 60.429688 0 67.945312 -1.503906 73.957031 -4.660156 C 79.972656 -7.816406 84.933594 -12.027344 88.539062 -17.136719 C 92.148438 -22.246094 94.851562 -28.109375 96.507812 -34.722656 C 98.011719 -41.339844 98.914062 -48.101562 98.914062 -55.019531 Z M 98.914062 -110.1875 "/></g></g><g style="fill:rgb(100%,34.118652%,19.999695%);fill-opacity:1;"><g transform="translate(1070.217542, 258.244709)"><path style="stroke:none;" d="M 98.914062 -55.167969 C 98.914062 -62.082031 97.859375 -68.699219 95.90625 -75.3125 C 93.953125 -81.925781 91.09375 -87.789062 87.1875 -92.898438 C 83.277344 -98.011719 78.316406 -102.21875 72.457031 -105.375 C 66.441406 -108.53125 59.527344 -110.1875 51.710938 -110.1875 C 43.894531 -110.1875 36.980469 -108.53125 31.117188 -105.375 C 25.105469 -102.21875 20.144531 -98.011719 16.234375 -92.898438 C 12.328125 -87.789062 9.320312 -81.925781 7.367188 -75.3125 C 5.410156 -68.699219 4.507812 -62.082031 4.507812 -55.167969 C 4.507812 -48.402344 5.410156 -41.789062 7.367188 -35.324219 C 9.167969 -28.863281 12.027344 -23 15.785156 -17.886719 C 19.542969 -12.777344 24.203125 -8.570312 29.914062 -5.410156 C 35.625 -2.105469 42.242188 -0.449219 49.757812 -0.148438 L 59.527344 15.632812 L 83.277344 15.632812 L 70.800781 -4.058594 C 75.460938 -6.164062 79.519531 -9.019531 83.128906 -12.628906 C 86.585938 -16.234375 89.441406 -20.292969 91.847656 -24.804688 C 94.253906 -29.3125 95.90625 -34.273438 97.109375 -39.382812 C 98.3125 -44.496094 98.914062 -49.757812 98.914062 -55.167969 Z M 51.710938 -94.554688 C 53.515625 -94.554688 55.46875 -93.800781 57.421875 -92.296875 C 59.226562 -90.792969 61.03125 -88.390625 62.535156 -85.234375 C 64.039062 -81.925781 65.238281 -77.867188 66.140625 -72.90625 C 67.042969 -67.945312 67.496094 -62.082031 67.496094 -55.167969 C 67.496094 -48.253906 67.042969 -42.242188 66.140625 -37.28125 C 65.238281 -32.320312 64.039062 -28.261719 62.535156 -25.105469 C 61.03125 -21.796875 59.226562 -19.542969 57.421875 -18.039062 C 55.46875 -16.535156 53.515625 -15.785156 51.710938 -15.785156 C 49.605469 -15.785156 47.652344 -16.535156 45.847656 -18.039062 C 44.042969 -19.542969 42.390625 -21.796875 40.886719 -25.105469 C 39.382812 -28.261719 38.183594 -32.320312 37.28125 -37.28125 C 36.378906 -42.242188 35.925781 -48.253906 35.925781 -55.167969 C 35.925781 -62.082031 36.378906 -67.945312 37.28125 -72.90625 C 38.183594 -77.867188 39.382812 -81.925781 40.886719 -85.234375 C 42.390625 -88.390625 44.042969 -90.792969 45.847656 -92.296875 C 47.652344 -93.800781 49.605469 -94.554688 51.710938 -94.554688 Z M 51.710938 -94.554688 "/></g></g><g style="fill:rgb(100%,34.118652%,19.999695%);fill-opacity:1;"><g transform="translate(1173.635185, 258.244709)"><path style="stroke:none;" d="M 98.914062 -110.1875 L 67.496094 -110.1875 L 67.496094 -55.019531 C 67.496094 -41.1875 66.292969 -31.265625 64.039062 -25.105469 C 61.632812 -18.789062 57.574219 -15.785156 51.710938 -15.785156 C 48.703125 -15.785156 46.300781 -16.535156 44.34375 -18.039062 C 42.242188 -19.542969 40.585938 -21.796875 39.382812 -25.105469 C 38.183594 -28.261719 37.28125 -32.320312 36.679688 -37.28125 C 36.078125 -42.089844 35.925781 -48.101562 35.925781 -55.019531 L 35.925781 -110.1875 L 4.507812 -110.1875 L 4.507812 -55.019531 C 4.507812 -48.101562 5.261719 -41.339844 6.914062 -34.722656 C 8.417969 -28.109375 11.125 -22.246094 14.882812 -17.136719 C 18.488281 -12.027344 23.449219 -7.816406 29.464844 -4.660156 C 35.476562 -1.503906 42.84375 0 51.710938 0 C 60.429688 0 67.945312 -1.503906 73.957031 -4.660156 C 79.972656 -7.816406 84.933594 -12.027344 88.539062 -17.136719 C 92.148438 -22.246094 94.851562 -28.109375 96.507812 -34.722656 C 98.011719 -41.339844 98.914062 -48.101562 98.914062 -55.019531 Z M 98.914062 -110.1875 "/></g></g><g style="fill:rgb(100%,34.118652%,19.999695%);fill-opacity:1;"><g transform="translate(1277.052828, 258.244709)"><path style="stroke:none;" d="M 78.316406 -23.601562 L 38.933594 -23.601562 L 38.933594 -43.292969 L 70.5 -43.292969 L 70.5 -66.894531 L 38.933594 -66.894531 L 38.933594 -86.585938 L 74.410156 -86.585938 L 70.5 -110.1875 L 7.515625 -110.1875 L 7.515625 0 L 74.410156 0 Z M 78.316406 -23.601562 "/></g></g><g style="fill:rgb(100%,34.118652%,19.999695%);fill-opacity:1;"><g transform="translate(1362.883467, 258.244709)"><path style="stroke:none;" d=""/></g></g><g style="fill:rgb(100%,34.118652%,19.999695%);fill-opacity:1;"><g transform="translate(1407.978359, 258.244709)"><path style="stroke:none;" d="M 56.972656 -31.417969 L 65.992188 0 L 97.410156 0 L 65.992188 -110.1875 L 34.425781 -110.1875 L 3.007812 0 L 26.605469 0 L 35.625 -31.417969 Z M 52.460938 -47.203125 L 40.136719 -47.203125 L 46.300781 -68.847656 Z M 52.460938 -47.203125 "/></g></g><g style="fill:rgb(100%,34.118652%,19.999695%);fill-opacity:1;"><g transform="translate(1508.389686, 258.244709)"><path style="stroke:none;" d="M 7.515625 -110.1875 L 7.515625 0 L 31.117188 0 L 31.117188 -66.140625 L 66.59375 0 L 101.917969 0 L 101.917969 -110.1875 L 78.316406 -110.1875 L 78.316406 -44.042969 L 42.992188 -110.1875 Z M 7.515625 -110.1875 "/></g></g><g style="fill:rgb(100%,34.118652%,19.999695%);fill-opacity:1;"><g transform="translate(1617.820008, 258.244709)"><path style="stroke:none;" d="M 56.972656 -31.417969 L 65.992188 0 L 97.410156 0 L 65.992188 -110.1875 L 34.425781 -110.1875 L 3.007812 0 L 26.605469 0 L 35.625 -31.417969 Z M 52.460938 -47.203125 L 40.136719 -47.203125 L 46.300781 -68.847656 Z M 52.460938 -47.203125 "/></g></g><g style="fill:rgb(100%,34.118652%,19.999695%);fill-opacity:1;"><g transform="translate(1718.231289, 258.244709)"><path style="stroke:none;" d="M 74.410156 0 L 70.5 -23.601562 L 38.933594 -23.601562 L 38.933594 -110.1875 L 7.515625 -110.1875 L 7.515625 0 Z M 74.410156 0 "/></g></g><g style="fill:rgb(100%,34.118652%,19.999695%);fill-opacity:1;"><g transform="translate(1795.644249, 258.244709)"><path style="stroke:none;" d="M 98.914062 -110.1875 L 75.3125 -110.1875 C 75.160156 -109.886719 75.160156 -109.886719 75.3125 -110.035156 C 75.3125 -110.1875 75.3125 -110.1875 75.160156 -109.886719 C 75.011719 -109.585938 74.710938 -108.683594 74.109375 -107.480469 C 73.507812 -106.277344 72.605469 -104.171875 71.402344 -101.167969 C 70.199219 -98.160156 68.398438 -93.953125 66.140625 -88.839844 C 63.886719 -83.578125 61.03125 -76.816406 57.574219 -68.699219 C 53.964844 -76.816406 51.109375 -83.578125 49.003906 -88.839844 C 46.75 -93.953125 44.945312 -98.160156 43.742188 -101.167969 C 42.390625 -104.171875 41.488281 -106.277344 41.039062 -107.480469 C 40.4375 -108.683594 40.136719 -109.585938 39.984375 -109.886719 C 39.835938 -110.1875 39.835938 -110.1875 39.984375 -110.035156 C 39.984375 -109.886719 39.984375 -109.886719 39.984375 -110.1875 L 4.507812 -110.1875 L 35.925781 -36.378906 L 35.925781 0 L 67.496094 0 L 67.496094 -36.378906 Z M 98.914062 -110.1875 "/></g></g><g style="fill:rgb(100%,34.118652%,19.999695%);fill-opacity:1;"><g transform="translate(1899.061938, 258.244709)"><path style="stroke:none;" d="M 62.082031 -86.585938 L 89.59375 -86.585938 L 85.683594 -110.1875 L 6.914062 -110.1875 L 3.007812 -86.585938 L 30.515625 -86.585938 L 30.515625 0 L 62.082031 0 Z M 62.082031 -86.585938 "/></g></g><g style="fill:rgb(100%,34.118652%,19.999695%);fill-opacity:1;"><g transform="translate(1991.656813, 258.244709)"><path style="stroke:none;" d="M 7.515625 -110.1875 L 7.515625 0 L 38.933594 0 L 38.933594 -110.1875 Z M 7.515625 -110.1875 "/></g></g><g style="fill:rgb(100%,34.118652%,19.999695%);fill-opacity:1;"><g transform="translate(2038.104534, 258.244709)"><path style="stroke:none;" d="M 59.527344 -15.785156 C 55.621094 -15.785156 52.160156 -16.835938 49.15625 -19.089844 C 46.148438 -21.347656 43.742188 -24.351562 41.789062 -28.109375 C 39.835938 -31.71875 38.332031 -35.925781 37.429688 -40.738281 C 36.378906 -45.398438 35.925781 -50.207031 35.925781 -55.167969 C 35.925781 -59.980469 36.378906 -64.789062 37.429688 -69.449219 C 38.332031 -74.109375 39.835938 -78.316406 41.789062 -82.074219 C 43.742188 -85.683594 46.148438 -88.691406 49.15625 -90.945312 C 52.160156 -93.199219 55.621094 -94.402344 59.527344 -94.402344 C 62.382812 -94.402344 65.089844 -93.652344 67.496094 -92.449219 C 69.898438 -91.246094 72.003906 -89.894531 73.808594 -88.539062 C 75.761719 -86.734375 77.566406 -84.78125 79.21875 -82.675781 L 91.09375 -94.402344 C 88.539062 -97.257812 85.535156 -99.8125 82.226562 -102.21875 C 79.21875 -104.171875 75.613281 -105.976562 71.101562 -107.632812 C 66.59375 -109.285156 61.480469 -110.1875 55.621094 -110.1875 C 47.050781 -110.1875 39.535156 -108.53125 33.222656 -105.375 C 26.90625 -102.21875 21.496094 -98.011719 17.285156 -92.898438 C 13.078125 -87.636719 9.769531 -81.777344 7.667969 -75.160156 C 5.5625 -68.546875 4.507812 -61.78125 4.507812 -54.867188 C 4.507812 -47.953125 5.5625 -41.1875 7.667969 -34.574219 C 9.769531 -27.960938 12.925781 -22.246094 17.136719 -17.136719 C 21.347656 -12.027344 26.757812 -7.816406 33.222656 -4.660156 C 39.535156 -1.503906 47.050781 0 55.621094 0 C 61.480469 0 66.59375 -0.75 71.101562 -2.40625 C 75.613281 -3.910156 79.21875 -5.710938 82.226562 -7.816406 C 85.535156 -10.070312 88.539062 -12.777344 91.09375 -15.785156 L 79.21875 -27.507812 C 77.566406 -25.253906 75.761719 -23.300781 73.808594 -21.644531 C 72.003906 -20.144531 69.898438 -18.789062 67.496094 -17.585938 C 65.089844 -16.386719 62.382812 -15.785156 59.527344 -15.785156 Z M 59.527344 -15.785156 "/></g></g><g style="fill:rgb(100%,34.118652%,19.999695%);fill-opacity:1;"><g transform="translate(2133.705726, 258.244709)"><path style="stroke:none;" d="M 59.527344 -23.601562 C 59.527344 -21.496094 58.476562 -19.691406 56.519531 -18.1875 C 54.566406 -16.535156 51.710938 -15.785156 47.800781 -15.785156 C 44.496094 -15.785156 41.1875 -16.386719 38.183594 -17.886719 C 35.175781 -19.242188 32.320312 -20.894531 29.765625 -23 C 27.058594 -25.105469 24.804688 -27.359375 22.699219 -29.765625 C 20.59375 -32.167969 18.789062 -34.574219 17.4375 -36.679688 L 4.507812 -23.601562 C 8.117188 -19.089844 11.726562 -15.484375 15.332031 -12.476562 C 18.941406 -9.46875 22.699219 -7.066406 26.605469 -5.261719 C 30.363281 -3.308594 34.273438 -1.953125 38.484375 -1.203125 C 42.691406 -0.300781 47.050781 0 51.710938 0 C 58.625 0 64.488281 -1.050781 69.449219 -3.15625 C 74.410156 -5.261719 78.46875 -7.96875 81.777344 -11.273438 C 84.933594 -14.429688 87.335938 -17.886719 88.839844 -21.496094 C 90.34375 -25.105469 91.09375 -28.410156 91.09375 -31.417969 C 91.09375 -37.28125 89.742188 -42.390625 87.035156 -46.75 C 84.332031 -51.109375 80.875 -54.867188 76.816406 -58.175781 C 72.605469 -61.480469 68.246094 -64.339844 63.4375 -66.894531 C 58.625 -69.296875 54.265625 -71.703125 50.207031 -73.808594 C 46 -75.914062 42.691406 -77.867188 39.984375 -79.972656 C 37.28125 -81.925781 35.925781 -84.179688 35.925781 -86.585938 C 35.925781 -88.539062 36.828125 -90.34375 38.933594 -91.996094 C 40.886719 -93.5 43.894531 -94.402344 47.800781 -94.402344 C 51.109375 -94.402344 54.265625 -93.652344 57.273438 -92.296875 C 60.28125 -90.792969 63.136719 -89.140625 65.839844 -87.035156 C 68.398438 -84.933594 70.800781 -82.675781 72.90625 -80.273438 C 75.011719 -77.867188 76.664062 -75.613281 78.167969 -73.507812 L 91.09375 -86.585938 C 83.878906 -95.152344 76.515625 -101.167969 68.996094 -104.773438 C 61.480469 -108.382812 53.0625 -110.1875 43.894531 -110.1875 C 36.980469 -110.1875 30.964844 -108.984375 26.003906 -106.878906 C 21.046875 -104.773438 16.988281 -102.070312 13.828125 -98.914062 C 10.523438 -95.605469 8.269531 -92.148438 6.765625 -88.539062 C 5.261719 -84.933594 4.507812 -81.625 4.507812 -78.769531 C 4.507812 -72.757812 5.863281 -67.644531 8.570312 -63.285156 C 11.273438 -58.925781 14.582031 -55.167969 18.789062 -51.859375 C 22.847656 -48.554688 27.207031 -45.699219 32.019531 -43.292969 C 36.828125 -40.738281 41.1875 -38.484375 45.246094 -36.378906 C 49.304688 -34.273438 52.761719 -32.167969 55.46875 -30.214844 C 58.175781 -28.109375 59.527344 -26.003906 59.527344 -23.601562 Z M 59.527344 -23.601562 "/></g></g><g style="fill:rgb(100%,73.728943%,1.179504%);fill-opacity:1;"><g transform="translate(1478.58237, 453.919051)"><path style="stroke:none;" d=""/></g></g><path style=" stroke:none;fill-rule:nonzero;fill:rgb(100%,34.118652%,19.999695%);fill-opacity:1;" d="M 575.851562 192.433594 C 543.894531 220.652344 508.992188 251.816406 477.03125 280.03125 C 477.046875 280.058594 477.0625 280.082031 477.078125 280.109375 C 477.402344 280.558594 477.714844 281.042969 477.988281 281.59375 C 478.300781 282.132812 478.542969 282.667969 478.742188 283.203125 C 481.113281 288.453125 482.5 294.109375 482.90625 299.824219 C 517.570312 269.214844 555.1875 235.660156 589.851562 205.050781 C 584.390625 201.820312 579.585938 197.515625 575.851562 192.433594 Z M 575.851562 192.433594 "/><path style=" stroke:none;fill-rule:nonzero;fill:rgb(100%,34.118652%,19.999695%);fill-opacity:1;" d="M 314.53125 192.601562 C 314.039062 199.570312 311.886719 206.273438 308.441406 212.203125 C 337.492188 237.847656 369.488281 266.4375 398.539062 292.082031 C 400.046875 285.714844 402.882812 279.695312 407.007812 274.582031 C 377.160156 248.238281 344.375 218.949219 314.53125 192.601562 Z M 314.53125 192.601562 "/><path style=" stroke:none;fill-rule:nonzero;fill:rgb(100%,34.118652%,19.999695%);fill-opacity:1;" d="M 121.234375 293.546875 C 113.933594 288.003906 104.789062 284.585938 94.394531 284.023438 C 69.121094 282.660156 50.859375 305.5625 49.605469 328.875 C 48.246094 354.1875 71.117188 372.472656 94.394531 373.722656 C 118.65625 375.035156 136.410156 353.980469 138.90625 331.675781 C 139.113281 330.820312 139.242188 329.914062 139.183594 328.875 C 139.242188 327.863281 139.117188 326.96875 138.917969 326.125 C 138.21875 319.394531 136.347656 313.199219 133.421875 307.777344 C 167.429688 277.757812 202.910156 246.261719 236.914062 216.238281 C 232.933594 211.050781 230.09375 205 228.851562 198.382812 C 193.46875 229.609375 156.617188 262.316406 121.234375 293.546875 Z M 68.355469 328.871094 C 66.546875 295.242188 118.636719 295.417969 120.433594 328.871094 C 118.628906 362.484375 70.160156 362.484375 68.355469 328.871094 Z M 68.355469 328.871094 "/><path style=" stroke:none;fill-rule:nonzero;fill:rgb(100%,34.118652%,19.999695%);fill-opacity:1;" d="M 315.785156 185.605469 C 315.742188 185.257812 315.683594 184.910156 315.617188 184.570312 C 315.589844 184.09375 315.546875 183.613281 315.453125 183.113281 C 311.210938 160.542969 290.34375 144.644531 267.488281 146.566406 C 244.246094 148.519531 227.324219 168.34375 226.6875 191.191406 C 226.605469 194.164062 226.855469 197.054688 227.382812 199.851562 C 228.621094 206.46875 231.464844 212.519531 235.445312 217.707031 C 244.265625 229.195312 258.660156 236.425781 273.625 235.980469 C 289.21875 235.511719 302.527344 226.382812 309.914062 213.675781 C 313.363281 207.75 315.511719 201.046875 316.003906 194.074219 C 316.203125 191.28125 316.148438 188.449219 315.785156 185.605469 Z M 273.621094 217.203125 C 258.109375 218.597656 246.191406 206.082031 245.4375 191.195312 C 244.761719 177.789062 255.800781 167.699219 268.03125 165.28125 C 282.375 162.445312 294.246094 174.140625 297.160156 187.097656 C 298.363281 201.96875 289.402344 215.785156 273.621094 217.203125 Z M 273.621094 217.203125 "/><path style=" stroke:none;fill-rule:nonzero;fill:rgb(100%,34.118652%,19.999695%);fill-opacity:1;" d="M 479.457031 280.117188 C 479.183594 279.566406 478.875 279.082031 478.550781 278.636719 C 478.53125 278.605469 478.519531 278.582031 478.503906 278.554688 C 465.492188 257.976562 439.660156 251.359375 418.039062 262.796875 C 413.039062 265.441406 408.867188 268.980469 405.535156 273.105469 C 401.410156 278.21875 398.574219 284.242188 397.070312 290.609375 C 394.371094 302.003906 395.910156 314.515625 401.878906 324.929688 C 413.714844 345.585938 439.707031 351.15625 460.402344 341.777344 C 477.609375 333.984375 485.640625 315.9375 484.382812 298.347656 C 483.976562 292.636719 482.589844 286.976562 480.21875 281.726562 C 480.015625 281.195312 479.773438 280.65625 479.457031 280.117188 Z M 452.65625 324.671875 C 441.527344 331.273438 426.492188 327.269531 419.089844 317.039062 C 410.503906 305.183594 413.761719 288.472656 425.609375 280.164062 C 438.59375 271.054688 455.679688 276.523438 463.269531 289.589844 C 469.761719 302.597656 464.921875 317.386719 452.65625 324.671875 Z M 452.65625 324.671875 "/><g clip-rule="nonzero" clip-path="url(#clip1)"><path style=" stroke:none;fill-rule:nonzero;fill:rgb(100%,34.118652%,19.999695%);fill-opacity:1;" d="M 655.792969 166.234375 C 655.136719 142.667969 635.277344 124.867188 612.613281 123.476562 C 612.117188 123.417969 611.605469 123.382812 611.0625 123.398438 C 610.523438 123.382812 610.015625 123.417969 609.527344 123.476562 C 585.976562 124.859375 568.296875 142.671875 566.320312 166.234375 C 565.457031 176.542969 568.65625 186.128906 574.378906 193.910156 C 578.109375 198.988281 582.917969 203.292969 588.382812 206.523438 C 596.324219 211.230469 605.648438 213.664062 615.050781 212.875 C 638.886719 210.871094 656.453125 189.816406 655.792969 166.234375 Z M 614.507812 194.160156 C 597.820312 197.460938 584.648438 181.578125 585.078125 166.234375 C 585.460938 152.507812 598.125 142.53125 611.0625 142.171875 C 624.582031 142.546875 635.894531 152.519531 637.042969 166.234375 C 638.238281 180.449219 627.855469 191.523438 614.507812 194.160156 Z M 614.507812 194.160156 "/></g><g style="fill:rgb(100%,74.119568%,34.899902%);fill-opacity:1;"><g transform="translate(969.563466, 386.436184)"><path style="stroke:none;" d="M 27.671875 -37.234375 L 40.875 -63.296875 L 55.328125 -63.296875 L 34.328125 -24.640625 L 34.328125 0 L 21 0 L 21 -24.203125 L 0 -63.296875 L 14.546875 -63.296875 Z M 27.671875 -37.234375 "/></g></g><g style="fill:rgb(100%,74.119568%,34.899902%);fill-opacity:1;"><g transform="translate(1024.891916, 386.436184)"><path style="stroke:none;" d="M 17.453125 -24.296875 C 17.453125 -19.503906 18.238281 -15.878906 19.8125 -13.421875 C 21.382812 -10.960938 23.945312 -9.734375 27.5 -9.734375 C 31.019531 -9.734375 33.550781 -10.953125 35.09375 -13.390625 C 36.632812 -15.835938 37.40625 -19.472656 37.40625 -24.296875 C 37.40625 -29.085938 36.625 -32.675781 35.0625 -35.0625 C 33.507812 -37.457031 30.957031 -38.65625 27.40625 -38.65625 C 23.882812 -38.65625 21.34375 -37.460938 19.78125 -35.078125 C 18.226562 -32.703125 17.453125 -29.109375 17.453125 -24.296875 Z M 50.921875 -24.296875 C 50.921875 -16.410156 48.84375 -10.242188 44.6875 -5.796875 C 40.53125 -1.359375 34.738281 0.859375 27.3125 0.859375 C 22.664062 0.859375 18.566406 -0.15625 15.015625 -2.1875 C 11.472656 -4.21875 8.75 -7.140625 6.84375 -10.953125 C 4.9375 -14.765625 3.984375 -19.210938 3.984375 -24.296875 C 3.984375 -32.203125 6.046875 -38.347656 10.171875 -42.734375 C 14.296875 -47.117188 20.097656 -49.3125 27.578125 -49.3125 C 32.222656 -49.3125 36.320312 -48.300781 39.875 -46.28125 C 43.425781 -44.257812 46.15625 -41.359375 48.0625 -37.578125 C 49.96875 -33.796875 50.921875 -29.367188 50.921875 -24.296875 Z M 50.921875 -24.296875 "/></g></g><g style="fill:rgb(100%,74.119568%,34.899902%);fill-opacity:1;"><g transform="translate(1079.787437, 386.436184)"><path style="stroke:none;" d="M 41.21875 0 L 39.4375 -6.1875 L 38.75 -6.1875 C 37.332031 -3.9375 35.320312 -2.195312 32.71875 -0.96875 C 30.125 0.25 27.171875 0.859375 23.859375 0.859375 C 18.171875 0.859375 13.882812 -0.660156 11 -3.703125 C 8.113281 -6.742188 6.671875 -11.125 6.671875 -16.84375 L 6.671875 -48.40625 L 19.875 -48.40625 L 19.875 -20.140625 C 19.875 -16.640625 20.492188 -14.015625 21.734375 -12.265625 C 22.972656 -10.523438 24.953125 -9.65625 27.671875 -9.65625 C 31.359375 -9.65625 34.023438 -10.890625 35.671875 -13.359375 C 37.316406 -15.828125 38.140625 -19.914062 38.140625 -25.625 L 38.140625 -48.40625 L 51.34375 -48.40625 L 51.34375 0 Z M 41.21875 0 "/></g></g><g style="fill:rgb(100%,74.119568%,34.899902%);fill-opacity:1;"><g transform="translate(1138.059811, 386.436184)"><path style="stroke:none;" d="M 33.9375 -49.3125 C 35.726562 -49.3125 37.21875 -49.179688 38.40625 -48.921875 L 37.40625 -36.546875 C 36.34375 -36.828125 35.046875 -36.96875 33.515625 -36.96875 C 29.296875 -36.96875 26.007812 -35.882812 23.65625 -33.71875 C 21.3125 -31.5625 20.140625 -28.535156 20.140625 -24.640625 L 20.140625 0 L 6.921875 0 L 6.921875 -48.40625 L 16.921875 -48.40625 L 18.875 -40.265625 L 19.53125 -40.265625 C 21.03125 -42.984375 23.054688 -45.171875 25.609375 -46.828125 C 28.160156 -48.484375 30.9375 -49.3125 33.9375 -49.3125 Z M 33.9375 -49.3125 "/></g></g><g style="fill:rgb(100%,74.119568%,34.899902%);fill-opacity:1;"><g transform="translate(1178.322299, 386.436184)"><path style="stroke:none;" d=""/></g></g><g style="fill:rgb(100%,74.119568%,34.899902%);fill-opacity:1;"><g transform="translate(1201.354173, 386.436184)"><path style="stroke:none;" d="M 7.96875 -63.296875 L 27.671875 -63.296875 C 36.640625 -63.296875 43.148438 -62.019531 47.203125 -59.46875 C 51.265625 -56.914062 53.296875 -52.851562 53.296875 -47.28125 C 53.296875 -43.5 52.40625 -40.394531 50.625 -37.96875 C 48.851562 -35.539062 46.5 -34.082031 43.5625 -33.59375 L 43.5625 -33.171875 C 47.570312 -32.273438 50.460938 -30.597656 52.234375 -28.140625 C 54.015625 -25.691406 54.90625 -22.429688 54.90625 -18.359375 C 54.90625 -12.585938 52.816406 -8.082031 48.640625 -4.84375 C 44.472656 -1.613281 38.8125 0 31.65625 0 L 7.96875 0 Z M 21.390625 -38.234375 L 29.1875 -38.234375 C 32.820312 -38.234375 35.453125 -38.796875 37.078125 -39.921875 C 38.710938 -41.046875 39.53125 -42.90625 39.53125 -45.5 C 39.53125 -47.925781 38.640625 -49.664062 36.859375 -50.71875 C 35.085938 -51.769531 32.285156 -52.296875 28.453125 -52.296875 L 21.390625 -52.296875 Z M 21.390625 -27.578125 L 21.390625 -11.078125 L 30.140625 -11.078125 C 33.828125 -11.078125 36.550781 -11.785156 38.3125 -13.203125 C 40.070312 -14.617188 40.953125 -16.785156 40.953125 -19.703125 C 40.953125 -24.953125 37.203125 -27.578125 29.703125 -27.578125 Z M 21.390625 -27.578125 "/></g></g><g style="fill:rgb(100%,74.119568%,34.899902%);fill-opacity:1;"><g transform="translate(1260.925337, 386.436184)"><path style="stroke:none;" d="M 6.359375 -60.921875 C 6.359375 -65.222656 8.753906 -67.375 13.546875 -67.375 C 18.335938 -67.375 20.734375 -65.222656 20.734375 -60.921875 C 20.734375 -58.867188 20.132812 -57.269531 18.9375 -56.125 C 17.738281 -54.988281 15.941406 -54.421875 13.546875 -54.421875 C 8.753906 -54.421875 6.359375 -56.585938 6.359375 -60.921875 Z M 20.140625 0 L 6.921875 0 L 6.921875 -48.40625 L 20.140625 -48.40625 Z M 20.140625 0 "/></g></g><g style="fill:rgb(100%,74.119568%,34.899902%);fill-opacity:1;"><g transform="translate(1287.983449, 386.436184)"><path style="stroke:none;" d="M 49.0625 -48.40625 L 49.0625 -41.6875 L 41.484375 -39.75 C 42.867188 -37.582031 43.5625 -35.15625 43.5625 -32.46875 C 43.5625 -27.269531 41.75 -23.21875 38.125 -20.3125 C 34.5 -17.414062 29.46875 -15.96875 23.03125 -15.96875 L 20.65625 -16.109375 L 18.703125 -16.328125 C 17.347656 -15.285156 16.671875 -14.128906 16.671875 -12.859375 C 16.671875 -10.953125 19.09375 -10 23.9375 -10 L 32.171875 -10 C 37.484375 -10 41.53125 -8.859375 44.3125 -6.578125 C 47.101562 -4.296875 48.5 -0.945312 48.5 3.46875 C 48.5 9.125 46.132812 13.507812 41.40625 16.625 C 36.6875 19.738281 29.910156 21.296875 21.078125 21.296875 C 14.328125 21.296875 9.171875 20.117188 5.609375 17.765625 C 2.046875 15.421875 0.265625 12.125 0.265625 7.875 C 0.265625 4.957031 1.171875 2.519531 2.984375 0.5625 C 4.804688 -1.394531 7.476562 -2.796875 11 -3.640625 C 9.644531 -4.210938 8.460938 -5.15625 7.453125 -6.46875 C 6.441406 -7.78125 5.9375 -9.175781 5.9375 -10.65625 C 5.9375 -12.5 6.46875 -14.035156 7.53125 -15.265625 C 8.601562 -16.492188 10.148438 -17.695312 12.171875 -18.875 C 9.628906 -19.96875 7.613281 -21.726562 6.125 -24.15625 C 4.632812 -26.582031 3.890625 -29.441406 3.890625 -32.734375 C 3.890625 -38.015625 5.609375 -42.097656 9.046875 -44.984375 C 12.484375 -47.867188 17.390625 -49.3125 23.765625 -49.3125 C 25.128906 -49.3125 26.738281 -49.1875 28.59375 -48.9375 C 30.457031 -48.695312 31.648438 -48.519531 32.171875 -48.40625 Z M 11.6875 6.84375 C 11.6875 8.65625 12.554688 10.082031 14.296875 11.125 C 16.046875 12.164062 18.492188 12.6875 21.640625 12.6875 C 26.378906 12.6875 30.085938 12.035156 32.765625 10.734375 C 35.453125 9.441406 36.796875 7.664062 36.796875 5.40625 C 36.796875 3.59375 36.003906 2.335938 34.421875 1.640625 C 32.835938 0.953125 30.382812 0.609375 27.0625 0.609375 L 20.21875 0.609375 C 17.789062 0.609375 15.757812 1.175781 14.125 2.3125 C 12.5 3.457031 11.6875 4.96875 11.6875 6.84375 Z M 16.5 -32.5625 C 16.5 -29.9375 17.097656 -27.859375 18.296875 -26.328125 C 19.492188 -24.796875 21.316406 -24.03125 23.765625 -24.03125 C 26.253906 -24.03125 28.070312 -24.796875 29.21875 -26.328125 C 30.375 -27.859375 30.953125 -29.9375 30.953125 -32.5625 C 30.953125 -38.394531 28.554688 -41.3125 23.765625 -41.3125 C 18.921875 -41.3125 16.5 -38.394531 16.5 -32.5625 Z M 16.5 -32.5625 "/></g></g><g style="fill:rgb(100%,74.119568%,34.899902%);fill-opacity:1;"><g transform="translate(1338.073458, 386.436184)"><path style="stroke:none;" d=""/></g></g><g style="fill:rgb(100%,74.119568%,34.899902%);fill-opacity:1;"><g transform="translate(1361.105332, 386.436184)"><path style="stroke:none;" d="M 60.484375 -32.25 C 60.484375 -21.832031 57.515625 -13.851562 51.578125 -8.3125 C 45.648438 -2.769531 37.085938 0 25.890625 0 L 7.96875 0 L 7.96875 -63.296875 L 27.84375 -63.296875 C 38.175781 -63.296875 46.195312 -60.566406 51.90625 -55.109375 C 57.625 -49.660156 60.484375 -42.039062 60.484375 -32.25 Z M 46.546875 -31.90625 C 46.546875 -45.5 40.539062 -52.296875 28.53125 -52.296875 L 21.390625 -52.296875 L 21.390625 -11.078125 L 27.140625 -11.078125 C 40.078125 -11.078125 46.546875 -18.019531 46.546875 -31.90625 Z M 46.546875 -31.90625 "/></g></g><g style="fill:rgb(100%,74.119568%,34.899902%);fill-opacity:1;"><g transform="translate(1426.737516, 386.436184)"><path style="stroke:none;" d="M 37.671875 0 L 35.109375 -6.578125 L 34.765625 -6.578125 C 32.546875 -3.773438 30.257812 -1.832031 27.90625 -0.75 C 25.550781 0.320312 22.484375 0.859375 18.703125 0.859375 C 14.054688 0.859375 10.394531 -0.460938 7.71875 -3.109375 C 5.050781 -5.765625 3.71875 -9.550781 3.71875 -14.46875 C 3.71875 -19.601562 5.515625 -23.390625 9.109375 -25.828125 C 12.703125 -28.265625 18.125 -29.613281 25.375 -29.875 L 33.765625 -30.140625 L 33.765625 -32.25 C 33.765625 -37.15625 31.253906 -39.609375 26.234375 -39.609375 C 22.367188 -39.609375 17.820312 -38.441406 12.59375 -36.109375 L 8.21875 -45.03125 C 13.789062 -47.945312 19.96875 -49.40625 26.75 -49.40625 C 33.25 -49.40625 38.226562 -47.988281 41.6875 -45.15625 C 45.15625 -42.332031 46.890625 -38.03125 46.890625 -32.25 L 46.890625 0 Z M 33.765625 -22.421875 L 28.65625 -22.25 C 24.820312 -22.132812 21.96875 -21.441406 20.09375 -20.171875 C 18.21875 -18.898438 17.28125 -16.96875 17.28125 -14.375 C 17.28125 -10.65625 19.414062 -8.796875 23.6875 -8.796875 C 26.738281 -8.796875 29.179688 -9.675781 31.015625 -11.4375 C 32.847656 -13.195312 33.765625 -15.53125 33.765625 -18.4375 Z M 33.765625 -22.421875 "/></g></g><g style="fill:rgb(100%,74.119568%,34.899902%);fill-opacity:1;"><g transform="translate(1480.290965, 386.436184)"><path style="stroke:none;" d="M 27.3125 -9.65625 C 29.625 -9.65625 32.398438 -10.160156 35.640625 -11.171875 L 35.640625 -1.34375 C 32.347656 0.125 28.304688 0.859375 23.515625 0.859375 C 18.234375 0.859375 14.382812 -0.472656 11.96875 -3.140625 C 9.5625 -5.804688 8.359375 -9.8125 8.359375 -15.15625 L 8.359375 -38.484375 L 2.03125 -38.484375 L 2.03125 -44.078125 L 9.3125 -48.5 L 13.125 -58.703125 L 21.5625 -58.703125 L 21.5625 -48.40625 L 35.109375 -48.40625 L 35.109375 -38.484375 L 21.5625 -38.484375 L 21.5625 -15.15625 C 21.5625 -13.28125 22.085938 -11.894531 23.140625 -11 C 24.191406 -10.101562 25.582031 -9.65625 27.3125 -9.65625 Z M 27.3125 -9.65625 "/></g></g><g style="fill:rgb(100%,74.119568%,34.899902%);fill-opacity:1;"><g transform="translate(1518.77845, 386.436184)"><path style="stroke:none;" d="M 37.671875 0 L 35.109375 -6.578125 L 34.765625 -6.578125 C 32.546875 -3.773438 30.257812 -1.832031 27.90625 -0.75 C 25.550781 0.320312 22.484375 0.859375 18.703125 0.859375 C 14.054688 0.859375 10.394531 -0.460938 7.71875 -3.109375 C 5.050781 -5.765625 3.71875 -9.550781 3.71875 -14.46875 C 3.71875 -19.601562 5.515625 -23.390625 9.109375 -25.828125 C 12.703125 -28.265625 18.125 -29.613281 25.375 -29.875 L 33.765625 -30.140625 L 33.765625 -32.25 C 33.765625 -37.15625 31.253906 -39.609375 26.234375 -39.609375 C 22.367188 -39.609375 17.820312 -38.441406 12.59375 -36.109375 L 8.21875 -45.03125 C 13.789062 -47.945312 19.96875 -49.40625 26.75 -49.40625 C 33.25 -49.40625 38.226562 -47.988281 41.6875 -45.15625 C 45.15625 -42.332031 46.890625 -38.03125 46.890625 -32.25 L 46.890625 0 Z M 33.765625 -22.421875 L 28.65625 -22.25 C 24.820312 -22.132812 21.96875 -21.441406 20.09375 -20.171875 C 18.21875 -18.898438 17.28125 -16.96875 17.28125 -14.375 C 17.28125 -10.65625 19.414062 -8.796875 23.6875 -8.796875 C 26.738281 -8.796875 29.179688 -9.675781 31.015625 -11.4375 C 32.847656 -13.195312 33.765625 -15.53125 33.765625 -18.4375 Z M 33.765625 -22.421875 "/></g></g><g style="fill:rgb(100%,74.119568%,34.899902%);fill-opacity:1;"><g transform="translate(1572.331899, 386.436184)"><path style="stroke:none;" d=""/></g></g><g style="fill:rgb(100%,74.119568%,34.899902%);fill-opacity:1;"><g transform="translate(1595.363773, 386.436184)"><path style="stroke:none;" d="M 45.328125 -17.578125 C 45.328125 -11.859375 43.269531 -7.351562 39.15625 -4.0625 C 35.039062 -0.78125 29.320312 0.859375 22 0.859375 C 15.238281 0.859375 9.257812 -0.40625 4.0625 -2.9375 L 4.0625 -15.40625 C 8.34375 -13.507812 11.960938 -12.171875 14.921875 -11.390625 C 17.878906 -10.609375 20.582031 -10.21875 23.03125 -10.21875 C 25.976562 -10.21875 28.238281 -10.78125 29.8125 -11.90625 C 31.382812 -13.03125 32.171875 -14.703125 32.171875 -16.921875 C 32.171875 -18.171875 31.820312 -19.273438 31.125 -20.234375 C 30.4375 -21.203125 29.421875 -22.132812 28.078125 -23.03125 C 26.734375 -23.925781 24 -25.351562 19.875 -27.3125 C 16.007812 -29.132812 13.109375 -30.882812 11.171875 -32.5625 C 9.234375 -34.238281 7.6875 -36.1875 6.53125 -38.40625 C 5.382812 -40.625 4.8125 -43.222656 4.8125 -46.203125 C 4.8125 -51.796875 6.707031 -56.191406 10.5 -59.390625 C 14.289062 -62.597656 19.535156 -64.203125 26.234375 -64.203125 C 29.523438 -64.203125 32.664062 -63.8125 35.65625 -63.03125 C 38.644531 -62.257812 41.769531 -61.164062 45.03125 -59.75 L 40.703125 -49.3125 C 37.328125 -50.695312 34.535156 -51.660156 32.328125 -52.203125 C 30.117188 -52.753906 27.945312 -53.03125 25.8125 -53.03125 C 23.269531 -53.03125 21.316406 -52.4375 19.953125 -51.25 C 18.597656 -50.070312 17.921875 -48.53125 17.921875 -46.625 C 17.921875 -45.445312 18.191406 -44.414062 18.734375 -43.53125 C 19.285156 -42.65625 20.160156 -41.804688 21.359375 -40.984375 C 22.554688 -40.160156 25.394531 -38.679688 29.875 -36.546875 C 35.789062 -33.710938 39.84375 -30.875 42.03125 -28.03125 C 44.226562 -25.1875 45.328125 -21.703125 45.328125 -17.578125 Z M 45.328125 -17.578125 "/></g></g><g style="fill:rgb(100%,74.119568%,34.899902%);fill-opacity:1;"><g transform="translate(1644.198274, 386.436184)"><path style="stroke:none;" d="M 17.453125 -24.296875 C 17.453125 -19.503906 18.238281 -15.878906 19.8125 -13.421875 C 21.382812 -10.960938 23.945312 -9.734375 27.5 -9.734375 C 31.019531 -9.734375 33.550781 -10.953125 35.09375 -13.390625 C 36.632812 -15.835938 37.40625 -19.472656 37.40625 -24.296875 C 37.40625 -29.085938 36.625 -32.675781 35.0625 -35.0625 C 33.507812 -37.457031 30.957031 -38.65625 27.40625 -38.65625 C 23.882812 -38.65625 21.34375 -37.460938 19.78125 -35.078125 C 18.226562 -32.703125 17.453125 -29.109375 17.453125 -24.296875 Z M 50.921875 -24.296875 C 50.921875 -16.410156 48.84375 -10.242188 44.6875 -5.796875 C 40.53125 -1.359375 34.738281 0.859375 27.3125 0.859375 C 22.664062 0.859375 18.566406 -0.15625 15.015625 -2.1875 C 11.472656 -4.21875 8.75 -7.140625 6.84375 -10.953125 C 4.9375 -14.765625 3.984375 -19.210938 3.984375 -24.296875 C 3.984375 -32.203125 6.046875 -38.347656 10.171875 -42.734375 C 14.296875 -47.117188 20.097656 -49.3125 27.578125 -49.3125 C 32.222656 -49.3125 36.320312 -48.300781 39.875 -46.28125 C 43.425781 -44.257812 46.15625 -41.359375 48.0625 -37.578125 C 49.96875 -33.796875 50.921875 -29.367188 50.921875 -24.296875 Z M 50.921875 -24.296875 "/></g></g><g style="fill:rgb(100%,74.119568%,34.899902%);fill-opacity:1;"><g transform="translate(1699.093795, 386.436184)"><path style="stroke:none;" d="M 20.140625 0 L 6.921875 0 L 6.921875 -67.375 L 20.140625 -67.375 Z M 20.140625 0 "/></g></g><g style="fill:rgb(100%,74.119568%,34.899902%);fill-opacity:1;"><g transform="translate(1726.15193, 386.436184)"><path style="stroke:none;" d="M 41.21875 0 L 39.4375 -6.1875 L 38.75 -6.1875 C 37.332031 -3.9375 35.320312 -2.195312 32.71875 -0.96875 C 30.125 0.25 27.171875 0.859375 23.859375 0.859375 C 18.171875 0.859375 13.882812 -0.660156 11 -3.703125 C 8.113281 -6.742188 6.671875 -11.125 6.671875 -16.84375 L 6.671875 -48.40625 L 19.875 -48.40625 L 19.875 -20.140625 C 19.875 -16.640625 20.492188 -14.015625 21.734375 -12.265625 C 22.972656 -10.523438 24.953125 -9.65625 27.671875 -9.65625 C 31.359375 -9.65625 34.023438 -10.890625 35.671875 -13.359375 C 37.316406 -15.828125 38.140625 -19.914062 38.140625 -25.625 L 38.140625 -48.40625 L 51.34375 -48.40625 L 51.34375 0 Z M 41.21875 0 "/></g></g><g style="fill:rgb(100%,74.119568%,34.899902%);fill-opacity:1;"><g transform="translate(1784.424327, 386.436184)"><path style="stroke:none;" d="M 27.3125 -9.65625 C 29.625 -9.65625 32.398438 -10.160156 35.640625 -11.171875 L 35.640625 -1.34375 C 32.347656 0.125 28.304688 0.859375 23.515625 0.859375 C 18.234375 0.859375 14.382812 -0.472656 11.96875 -3.140625 C 9.5625 -5.804688 8.359375 -9.8125 8.359375 -15.15625 L 8.359375 -38.484375 L 2.03125 -38.484375 L 2.03125 -44.078125 L 9.3125 -48.5 L 13.125 -58.703125 L 21.5625 -58.703125 L 21.5625 -48.40625 L 35.109375 -48.40625 L 35.109375 -38.484375 L 21.5625 -38.484375 L 21.5625 -15.15625 C 21.5625 -13.28125 22.085938 -11.894531 23.140625 -11 C 24.191406 -10.101562 25.582031 -9.65625 27.3125 -9.65625 Z M 27.3125 -9.65625 "/></g></g><g style="fill:rgb(100%,74.119568%,34.899902%);fill-opacity:1;"><g transform="translate(1822.911812, 386.436184)"><path style="stroke:none;" d="M 6.359375 -60.921875 C 6.359375 -65.222656 8.753906 -67.375 13.546875 -67.375 C 18.335938 -67.375 20.734375 -65.222656 20.734375 -60.921875 C 20.734375 -58.867188 20.132812 -57.269531 18.9375 -56.125 C 17.738281 -54.988281 15.941406 -54.421875 13.546875 -54.421875 C 8.753906 -54.421875 6.359375 -56.585938 6.359375 -60.921875 Z M 20.140625 0 L 6.921875 0 L 6.921875 -48.40625 L 20.140625 -48.40625 Z M 20.140625 0 "/></g></g><g style="fill:rgb(100%,74.119568%,34.899902%);fill-opacity:1;"><g transform="translate(1849.969947, 386.436184)"><path style="stroke:none;" d="M 17.453125 -24.296875 C 17.453125 -19.503906 18.238281 -15.878906 19.8125 -13.421875 C 21.382812 -10.960938 23.945312 -9.734375 27.5 -9.734375 C 31.019531 -9.734375 33.550781 -10.953125 35.09375 -13.390625 C 36.632812 -15.835938 37.40625 -19.472656 37.40625 -24.296875 C 37.40625 -29.085938 36.625 -32.675781 35.0625 -35.0625 C 33.507812 -37.457031 30.957031 -38.65625 27.40625 -38.65625 C 23.882812 -38.65625 21.34375 -37.460938 19.78125 -35.078125 C 18.226562 -32.703125 17.453125 -29.109375 17.453125 -24.296875 Z M 50.921875 -24.296875 C 50.921875 -16.410156 48.84375 -10.242188 44.6875 -5.796875 C 40.53125 -1.359375 34.738281 0.859375 27.3125 0.859375 C 22.664062 0.859375 18.566406 -0.15625 15.015625 -2.1875 C 11.472656 -4.21875 8.75 -7.140625 6.84375 -10.953125 C 4.9375 -14.765625 3.984375 -19.210938 3.984375 -24.296875 C 3.984375 -32.203125 6.046875 -38.347656 10.171875 -42.734375 C 14.296875 -47.117188 20.097656 -49.3125 27.578125 -49.3125 C 32.222656 -49.3125 36.320312 -48.300781 39.875 -46.28125 C 43.425781 -44.257812 46.15625 -41.359375 48.0625 -37.578125 C 49.96875 -33.796875 50.921875 -29.367188 50.921875 -24.296875 Z M 50.921875 -24.296875 "/></g></g><g style="fill:rgb(100%,74.119568%,34.899902%);fill-opacity:1;"><g transform="translate(1904.865422, 386.436184)"><path style="stroke:none;" d="M 51.609375 0 L 38.40625 0 L 38.40625 -28.265625 C 38.40625 -31.765625 37.785156 -34.382812 36.546875 -36.125 C 35.304688 -37.875 33.328125 -38.75 30.609375 -38.75 C 26.910156 -38.75 24.238281 -37.515625 22.59375 -35.046875 C 20.957031 -32.578125 20.140625 -28.488281 20.140625 -22.78125 L 20.140625 0 L 6.921875 0 L 6.921875 -48.40625 L 17.015625 -48.40625 L 18.796875 -42.21875 L 19.53125 -42.21875 C 21 -44.550781 23.023438 -46.316406 25.609375 -47.515625 C 28.191406 -48.710938 31.128906 -49.3125 34.421875 -49.3125 C 40.046875 -49.3125 44.316406 -47.785156 47.234375 -44.734375 C 50.148438 -41.691406 51.609375 -37.300781 51.609375 -31.5625 Z M 51.609375 0 "/></g></g></g></svg>